<?xml version="1.0" encoding="UTF-8" standalone="no"?>
<svg
   width="140.48547mm"
   height="136.77443mm"
   viewBox="0 0 140.48548 136.77443"
   version="1.1"
   id="svg1"
   xml:space="preserve"
   inkscape:version="1.4.2 (f4327f4, 2025-05-13)"
   sodipodi:docname="Logo.svg"
   xmlns:inkscape="http://www.inkscape.org/namespaces/inkscape"
   xmlns:sodipodi="http://sodipodi.sourceforge.net/DTD/sodipodi-0.dtd"
   xmlns:xlink="http://www.w3.org/1999/xlink"
   xmlns="http://www.w3.org/2000/svg"
   xmlns:svg="http://www.w3.org/2000/svg"><sodipodi:namedview
     id="namedview1"
     pagecolor="#505050"
     bordercolor="#eeeeee"
     borderopacity="1"
     inkscape:showpageshadow="0"
     inkscape:pageopacity="0"
     inkscape:pagecheckerboard="true"
     inkscape:deskcolor="#505050"
     inkscape:document-units="mm"
     inkscape:clip-to-page="false"
     inkscape:zoom="0.5"
     inkscape:cx="724"
     inkscape:cy="269"
     inkscape:window-width="1920"
     inkscape:window-height="1009"
     inkscape:window-x="1592"
     inkscape:window-y="444"
     inkscape:window-maximized="1"
     inkscape:current-layer="layer1" /><defs
     id="defs1"><inkscape:path-effect
       effect="bspline"
       id="path-effect65"
       is_visible="true"
       lpeversion="1.3"
       weight="33.333333"
       steps="2"
       helper_size="0"
       apply_no_weight="true"
       apply_with_weight="true"
       only_selected="false"
       uniform="false" /><inkscape:path-effect
       effect="bspline"
       id="path-effect64"
       is_visible="true"
       lpeversion="1.3"
       weight="33.333333"
       steps="2"
       helper_size="0"
       apply_no_weight="true"
       apply_with_weight="true"
       only_selected="false"
       uniform="false" /><inkscape:path-effect
       effect="bspline"
       id="path-effect63"
       is_visible="true"
       lpeversion="1.3"
       weight="33.333333"
       steps="2"
       helper_size="0"
       apply_no_weight="true"
       apply_with_weight="true"
       only_selected="false"
       uniform="false" /><inkscape:path-effect
       effect="bspline"
       id="path-effect62"
       is_visible="true"
       lpeversion="1.3"
       weight="33.333333"
       steps="2"
       helper_size="0"
       apply_no_weight="true"
       apply_with_weight="true"
       only_selected="false"
       uniform="false" /><inkscape:path-effect
       effect="bspline"
       id="path-effect61"
       is_visible="true"
       lpeversion="1.3"
       weight="33.333333"
       steps="2"
       helper_size="0"
       apply_no_weight="true"
       apply_with_weight="true"
       only_selected="false"
       uniform="false" /><inkscape:path-effect
       effect="bspline"
       id="path-effect60"
       is_visible="true"
       lpeversion="1.3"
       weight="33.333333"
       steps="2"
       helper_size="0"
       apply_no_weight="true"
       apply_with_weight="true"
       only_selected="false"
       uniform="false" /><inkscape:path-effect
       effect="bspline"
       id="path-effect59"
       is_visible="true"
       lpeversion="1.3"
       weight="33.333333"
       steps="2"
       helper_size="0"
       apply_no_weight="true"
       apply_with_weight="true"
       only_selected="false"
       uniform="false" /><inkscape:path-effect
       effect="bspline"
       id="path-effect58"
       is_visible="true"
       lpeversion="1.3"
       weight="33.333333"
       steps="2"
       helper_size="0"
       apply_no_weight="true"
       apply_with_weight="true"
       only_selected="false"
       uniform="false" /><inkscape:path-effect
       effect="bspline"
       id="path-effect57"
       is_visible="true"
       lpeversion="1.3"
       weight="33.333333"
       steps="2"
       helper_size="0"
       apply_no_weight="true"
       apply_with_weight="true"
       only_selected="false"
       uniform="false" /><inkscape:path-effect
       effect="bspline"
       id="path-effect56"
       is_visible="true"
       lpeversion="1.3"
       weight="33.333333"
       steps="2"
       helper_size="0"
       apply_no_weight="true"
       apply_with_weight="true"
       only_selected="false"
       uniform="false" /><inkscape:path-effect
       effect="bspline"
       id="path-effect49"
       is_visible="true"
       lpeversion="1.3"
       weight="33.333333"
       steps="2"
       helper_size="0"
       apply_no_weight="true"
       apply_with_weight="true"
       only_selected="false"
       uniform="false" /><inkscape:path-effect
       effect="bspline"
       id="path-effect48"
       is_visible="true"
       lpeversion="1.3"
       weight="33.333333"
       steps="2"
       helper_size="0"
       apply_no_weight="true"
       apply_with_weight="true"
       only_selected="false"
       uniform="false" /><color-profile
       name="sRGB-IEC61966-2.1"
       xlink:href="../../../WINDOWS/system32/spool/drivers/color/sRGB%20Color%20Space%20Profile.icm"
       id="color-profile1" /><inkscape:path-effect
       effect="bspline"
       id="path-effect28"
       is_visible="true"
       lpeversion="1.3"
       weight="33.333333"
       steps="2"
       helper_size="0"
       apply_no_weight="true"
       apply_with_weight="true"
       only_selected="false"
       uniform="false" /><inkscape:path-effect
       effect="bspline"
       id="path-effect11"
       is_visible="true"
       lpeversion="1.3"
       weight="33.333333"
       steps="2"
       helper_size="0"
       apply_no_weight="true"
       apply_with_weight="true"
       only_selected="false"
       uniform="false" /><inkscape:path-effect
       effect="bspline"
       id="path-effect9"
       is_visible="true"
       lpeversion="1.3"
       weight="33.333333"
       steps="2"
       helper_size="0"
       apply_no_weight="true"
       apply_with_weight="true"
       only_selected="false"
       uniform="false" /><inkscape:path-effect
       effect="bspline"
       id="path-effect8"
       is_visible="true"
       lpeversion="1.3"
       weight="33.333333"
       steps="2"
       helper_size="0"
       apply_no_weight="true"
       apply_with_weight="true"
       only_selected="false"
       uniform="false" /><inkscape:path-effect
       effect="bspline"
       id="path-effect7"
       is_visible="true"
       lpeversion="1.3"
       weight="33.333333"
       steps="2"
       helper_size="0"
       apply_no_weight="true"
       apply_with_weight="true"
       only_selected="false"
       uniform="false" /><inkscape:path-effect
       effect="bspline"
       id="path-effect6"
       is_visible="true"
       lpeversion="1.3"
       weight="33.333333"
       steps="2"
       helper_size="0"
       apply_no_weight="true"
       apply_with_weight="true"
       only_selected="false"
       uniform="false" /><inkscape:path-effect
       effect="bspline"
       id="path-effect5"
       is_visible="true"
       lpeversion="1.3"
       weight="33.333333"
       steps="2"
       helper_size="0"
       apply_no_weight="true"
       apply_with_weight="true"
       only_selected="false"
       uniform="false" /><inkscape:path-effect
       effect="bspline"
       id="path-effect3"
       is_visible="true"
       lpeversion="1.3"
       weight="33.333333"
       steps="2"
       helper_size="0"
       apply_no_weight="true"
       apply_with_weight="true"
       only_selected="false"
       uniform="false" /><inkscape:path-effect
       effect="bspline"
       id="path-effect2"
       is_visible="true"
       lpeversion="1.3"
       weight="33.333333"
       steps="2"
       helper_size="0"
       apply_no_weight="true"
       apply_with_weight="true"
       only_selected="false"
       uniform="false" /><inkscape:path-effect
       effect="bspline"
       id="path-effect1"
       is_visible="true"
       lpeversion="1.3"
       weight="33.333333"
       steps="2"
       helper_size="0"
       apply_no_weight="true"
       apply_with_weight="true"
       only_selected="false"
       uniform="false" /><inkscape:path-effect
       effect="bspline"
       id="path-effect2-2"
       is_visible="true"
       lpeversion="1.3"
       weight="33.333333"
       steps="2"
       helper_size="0"
       apply_no_weight="true"
       apply_with_weight="true"
       only_selected="false"
       uniform="false" /><inkscape:path-effect
       effect="bspline"
       id="path-effect7-1"
       is_visible="true"
       lpeversion="1.3"
       weight="33.333333"
       steps="2"
       helper_size="0"
       apply_no_weight="true"
       apply_with_weight="true"
       only_selected="false"
       uniform="false" /><inkscape:path-effect
       effect="bspline"
       id="path-effect7-2"
       is_visible="true"
       lpeversion="1.3"
       weight="33.333333"
       steps="2"
       helper_size="0"
       apply_no_weight="true"
       apply_with_weight="true"
       only_selected="false"
       uniform="false" /><inkscape:path-effect
       effect="bspline"
       id="path-effect57-4"
       is_visible="true"
       lpeversion="1.3"
       weight="33.333333"
       steps="2"
       helper_size="0"
       apply_no_weight="true"
       apply_with_weight="true"
       only_selected="false"
       uniform="false" /></defs><g
     inkscape:label="Capa 1"
     inkscape:groupmode="layer"
     id="layer1"
     transform="translate(-34.179761,-73.212191)"><path
       sodipodi:type="star"
       style="opacity:1;fill:#fd7d07;fill-opacity:1;stroke:none;stroke-width:0.264879;stroke-dasharray:none;stroke-opacity:1;paint-order:markers fill stroke"
       id="path50"
       inkscape:flatsided="true"
       sodipodi:sides="3"
       sodipodi:cx="144.25841"
       sodipodi:cy="59.381023"
       sodipodi:r1="21.537148"
       sodipodi:r2="10.768574"
       sodipodi:arg1="-1.7102364"
       sodipodi:arg2="-0.66303885"
       inkscape:rounded="0.94"
       inkscape:randomized="0"
       d="M 141.26499,38.052916 C 175.98987,33.179248 177.36752,34.943235 164.2258,67.4527 151.08408,99.962166 148.8676,100.27325 127.28443,72.637454 105.70127,45.001657 106.5401,42.926584 141.26499,38.052916 Z"
       inkscape:transform-center-x="-2.0001246"
       inkscape:transform-center-y="-8.7174527"
       transform="matrix(-0.53975312,-0.4088216,-0.37270671,0.66345943,244.66918,117.64895)" /><path
       style="opacity:1;fill:#01203d;fill-opacity:1;stroke:none;stroke-width:0.264999;stroke-dasharray:none;stroke-opacity:1"
       d="m 83.875543,96.471349 c 0,0 41.767547,0.09355 41.767547,0.09355 0.0624,-0.748355 0.12473,-1.49671 0.20268,-2.081362 0.078,-0.584651 0.1715,-1.005602 0.31181,-1.449942 0.14032,-0.444341 0.3274,-0.912055 0.66261,-1.496715 0.33521,-0.584659 0.81851,-1.286226 1.32521,-1.831906 0.50671,-0.545679 1.03678,-0.935436 1.62144,-1.27064 0.58466,-0.335205 1.22387,-0.615834 1.86309,-0.857492 0.63923,-0.241658 1.27843,-0.44433 1.98782,-0.537874 0.70939,-0.09354 1.48891,-0.07796 2.14373,-0.03118 0.65481,0.04677 1.18488,0.124725 1.73836,0.288429 0.55347,0.163703 1.13032,0.413151 1.676,0.724969 0.54568,0.311818 1.06016,0.685986 1.53569,1.161511 0.47552,0.475524 0.91205,1.05237 1.27844,1.582459 0.36638,0.530089 0.6626,1.013394 0.85748,1.496706 0.19488,0.483313 0.28843,0.966623 0.343,1.465531 0.0546,0.498909 0.0702,1.013391 0.0858,1.520094 0.0156,0.506704 0.0312,1.005598 0.0468,1.504501 0.81072,-0.01559 1.62143,-0.03118 2.29963,0.01559 0.6782,0.04677 1.22387,0.155906 1.94105,0.381976 0.71719,0.22607 1.60584,0.569057 2.362,0.927647 0.75615,0.358589 1.37977,0.73276 2.02679,1.169304 0.64702,0.436543 1.31741,0.935434 1.89427,1.387564 0.57686,0.45214 1.06016,0.85749 1.59805,1.43435 0.53789,0.57687 1.13032,1.32521 1.62143,2.06577 0.49111,0.74057 0.88087,1.47332 1.23167,2.1905 0.35079,0.71718 0.6626,1.41875 0.92765,2.11254 0.26504,0.6938 0.48331,1.37978 0.63142,1.98003 0.14812,0.60025 0.22607,1.11473 0.24166,2.34641 0.0156,1.23169 -0.0312,3.18049 -0.0546,6.10379 -0.0234,2.9233 -0.0234,6.8209 0.0234,12.46481 0.0468,5.64392 0.14032,13.03378 0.1637,19.26233 0.0234,6.22854 -0.0234,11.29542 -0.039,16.38584 -0.0156,5.09042 1e-5,10.20408 0.008,12.95585 0.008,2.75176 0.008,3.14152 -0.0857,3.61704 -0.0935,0.47553 -0.28063,1.03678 -0.45992,1.55128 -0.1793,0.5145 -0.35079,0.98221 -0.65482,1.66821 -0.30402,0.686 -0.74055,1.59025 -1.1771,2.3464 -0.43654,0.75616 -0.87307,1.36418 -1.4967,2.12034 -0.62364,0.75616 -1.43435,1.66041 -2.08916,2.33082 -0.65482,0.6704 -1.15371,1.10693 -1.83192,1.55906 -0.6782,0.45214 -1.53567,0.91985 -2.28403,1.29403 -0.74837,0.37418 -1.38757,0.65481 -2.05798,0.91206 -0.67041,0.25725 -1.37198,0.4911 -1.96443,0.67039 -0.59245,0.1793 -1.07575,0.30402 -1.60585,0.38197 -0.53009,0.0779 -1.10693,0.10911 -2.07357,0.1325 -0.96664,0.0234 -2.323,0.039 -11.88587,0.0383 -9.56287,-7e-4 -27.3315,-0.0177 -39.515718,0.006 -12.184218,0.0234 -18.783395,0.0871 -22.348097,0.11121 -3.564702,0.0241 -4.094776,0.008 -4.578096,-0.0305 -0.483319,-0.039 -0.919845,-0.10134 -1.520097,-0.21827 -0.600251,-0.11693 -1.364179,-0.28843 -2.198293,-0.53009 -0.834113,-0.24166 -1.738356,-0.55347 -2.580263,-0.92765 -0.841906,-0.37418 -1.621426,-0.81071 -2.478926,-1.43435 -0.8575,-0.62364 -1.792924,-1.43434 -2.54908,-2.15931 -0.756155,-0.72498 -1.332999,-1.36418 -1.839704,-2.00341 -0.506706,-0.63923 -0.943234,-1.27843 -1.333007,-1.92545 -0.389772,-0.64703 -0.732758,-1.30182 -1.091348,-2.00341 -0.35859,-0.70159 -0.732759,-1.44993 -1.005599,-2.14373 -0.272839,-0.69379 -0.444335,-1.333 -0.52229,-2.73619 -0.07795,-1.40318 -0.06236,-3.57025 -0.06236,-6.61827 0,-3.04803 -0.01559,-6.97681 -0.03118,-11.71644 -0.01559,-4.73964 -0.03118,-10.28983 -0.03118,-15.74663 0,-5.45681 0.01559,-10.81991 0.03118,-16.3079 0.01559,-5.48799 0.03118,-11.10054 0.02338,-14.56949 -0.0078,-3.46895 -0.03898,-4.79413 -0.03118,-5.62044 0.0078,-0.82632 0.05457,-1.15371 0.163703,-1.59026 0.109138,-0.43655 0.28063,-0.98221 0.45213,-1.55908 0.1715,-0.57686 0.342993,-1.18488 0.600243,-1.73836 0.25725,-0.55347 0.600243,-1.05237 0.951037,-1.59025 0.350795,-0.53789 0.709372,-1.11473 1.24726,-1.8553 0.537888,-0.74057 1.255047,-1.64481 2.050183,-2.43215 0.795137,-0.78734 1.668199,-1.457723 2.478923,-1.987812 0.810725,-0.530088 1.559064,-0.919848 2.330813,-1.255052 0.771748,-0.335203 1.566861,-0.615831 2.276244,-0.826307 0.709384,-0.210476 1.333002,-0.35079 1.941045,-0.444335 0.608043,-0.09354 1.200479,-0.140316 1.909865,-0.163702 0.709387,-0.02339 1.535678,-0.02339 2.081356,-0.02339 0.545678,0 0.810715,0 1.075757,0 -0.01559,-1.091351 -0.03118,-2.182701 -0.0078,-2.876491 0.02339,-0.69379 0.08575,-0.990008 0.343001,-1.488918 0.257252,-0.498911 0.709374,-1.200479 1.239465,-1.863091 0.530091,-0.662612 1.138116,-1.286227 1.769547,-1.769544 0.631431,-0.483316 1.286227,-0.826304 1.964431,-1.091348 0.678204,-0.265044 1.379773,-0.45213 2.050181,-0.545674 0.670407,-0.09354 1.309614,-0.09354 1.925453,-0.07016 0.615839,0.02339 1.208276,0.07016 1.81632,0.226067 0.608044,0.15591 1.23166,0.420946 1.785135,0.748355 0.553476,0.327409 1.036778,0.71717 1.481118,1.122533 0.44434,0.405363 0.84969,0.826304 1.20828,1.333007 0.358589,0.506704 0.670398,1.099141 0.927647,1.714981 0.257249,0.61584 0.459924,1.255047 0.584651,1.808522 0.124726,0.553475 0.171497,1.021187 0.21827,1.457731 0.04677,0.436544 0.09354,0.841896 0.140316,1.247254 z"
       id="path49"
       inkscape:path-effect="#path-effect49"
       inkscape:original-d="m 83.875543,96.471349 c 0,0 41.767547,0.09355 41.767547,0.09355 0,0 0.12472,-1.496711 0.18709,-2.245066 0.0935,-0.420957 0.18708,-0.841899 0.28063,-1.262848 0.18709,-0.467731 0.37418,-0.935443 0.56126,-1.403165 0.48333,-0.701596 0.96663,-1.403165 1.44994,-2.104747 0.5301,-0.389777 1.06017,-0.779537 1.59026,-1.169305 0.63923,-0.280638 1.27844,-0.561266 1.91765,-0.841899 0.63924,-0.202681 1.27844,-0.405358 1.91766,-0.608036 0.77956,0.01558 1.55908,0.03118 2.33861,0.04677 0.5301,0.07796 1.06017,0.155908 1.59026,0.233863 0.57686,0.249454 1.15371,0.498901 1.73057,0.748352 0.5145,0.374187 1.02898,0.748356 1.54348,1.122532 0.43655,0.576869 0.87308,1.153716 1.30962,1.730571 0.29623,0.483322 0.59245,0.966626 0.88867,1.449938 0.0935,0.483322 0.18709,0.966623 0.28063,1.449938 0.0156,0.514503 0.0312,1.028985 0.0468,1.543481 0.0156,0.498911 0.0468,1.496708 0.0468,1.496708 0,0 1.62143,-0.03118 2.43215,-0.04677 0.54568,0.109135 1.09135,0.218268 1.63702,0.327403 0.8887,0.343003 1.77735,0.685993 2.66602,1.028988 0.62364,0.374185 1.24726,0.748356 1.87089,1.122532 0.67041,0.498914 1.3408,0.997801 2.0112,1.496701 0.48332,0.40537 0.96662,0.81072 1.44994,1.21608 0.59245,0.74837 1.18489,1.49671 1.77734,2.24506 0.38977,0.73278 0.77953,1.46553 1.1693,2.1983 0.31182,0.70159 0.62363,1.40316 0.93545,2.10475 0.21827,0.686 0.43654,1.37198 0.65481,2.05797 0.078,0.5145 0.1559,1.02899 0.23386,1.54348 -0.0468,1.94888 -0.0936,3.89768 -0.14032,5.84652 0,3.89776 0,7.79536 0,11.69304 0.0935,7.39015 0.18709,14.78001 0.28063,22.17001 -0.0468,5.06709 -0.0935,10.13397 -0.14031,15.20095 0.0156,5.11386 0.0312,10.22752 0.0468,15.34128 0,0.38977 0,0.77953 0,1.1693 -0.18709,0.56128 -0.37418,1.12253 -0.56127,1.6838 -0.1715,0.46773 -0.34299,0.93544 -0.51449,1.40316 -0.43655,0.90428 -0.87308,1.80853 -1.30962,2.71279 -0.43655,0.60805 -0.87308,1.21607 -1.30962,1.82411 -0.81073,0.90428 -1.62144,1.80853 -2.43215,2.71279 -0.49892,0.43655 -0.99781,0.87308 -1.49672,1.30962 -0.8575,0.46773 -1.71497,0.93544 -2.57246,1.40316 -0.63924,0.28064 -1.27844,0.56127 -1.91766,0.8419 -0.7016,0.23387 -1.40317,0.46772 -2.10475,0.70158 -0.48332,0.12473 -0.96662,0.24946 -1.44994,0.37418 -0.57687,0.0312 -1.15371,0.0624 -1.73057,0.0935 -1.35642,0.0156 -2.71278,0.0312 -4.06918,0.0468 -17.76934,-0.017 -35.53797,-0.034 -53.306965,-0.051 -6.599441,0.0638 -13.198618,0.12751 -19.797927,0.19127 -0.530095,-0.0156 -1.060169,-0.0312 -1.590254,-0.0468 -0.436549,-0.0624 -0.87308,-0.12472 -1.309621,-0.18708 -0.763961,-0.17151 -1.52789,-0.343 -2.291837,-0.5145 -0.90428,-0.31182 -1.808522,-0.62363 -2.712783,-0.93544 -0.779553,-0.43655 -1.559073,-0.87308 -2.33861,-1.30962 -0.935461,-0.81074 -1.870887,-1.62144 -2.80633,-2.43216 -0.576868,-0.63923 -1.153713,-1.27843 -1.73057,-1.91765 -0.43655,-0.63924 -0.87308,-1.27844 -1.309622,-1.91766 -0.343,-0.65483 -0.68599,-1.30962 -1.028985,-1.96443 -0.374187,-0.74837 -0.748356,-1.49671 -1.122532,-2.24507 -0.171503,-0.63923 -0.342998,-1.27844 -0.514496,-1.91766 0.01558,-2.16715 0.03118,-4.33422 0.04677,-6.50133 -0.01558,-3.92894 -0.03118,-7.85772 -0.04677,-11.78658 -0.01558,-5.55041 -0.03118,-11.1006 -0.04677,-16.6509 0.01558,-5.36331 0.03118,-10.72641 0.04677,-16.08962 0.01558,-5.61277 0.03118,-11.22532 0.04677,-16.83798 -0.03118,-1.32524 -0.06236,-2.65042 -0.09354,-3.97564 0.04677,-0.32741 0.09354,-0.6548 0.140316,-0.98221 0.171501,-0.54569 0.342996,-1.09135 0.514493,-1.63703 0.1715,-0.60805 0.342995,-1.21607 0.514493,-1.82411 0.343003,-0.49891 0.685993,-0.99781 1.028988,-1.49671 0.358595,-0.57687 0.717175,-1.15371 1.075759,-1.73057 0.717188,-0.90428 1.434349,-1.80852 2.15152,-2.71278 0.873099,-0.67042 1.746163,-1.340803 2.619243,-2.011204 0.748369,-0.389776 1.496708,-0.779537 2.245064,-1.169305 0.795141,-0.280638 1.590254,-0.561266 2.38538,-0.841899 0.623641,-0.140319 1.247259,-0.280633 1.870887,-0.420949 0.592458,-0.04677 1.184894,-0.09354 1.777341,-0.140317 0.826326,0 1.652617,0 2.478926,0 0.265047,0 0.795126,0 0.795126,0 0,0 -0.03118,-2.182701 -0.04677,-3.274052 0.06236,-0.29623 0.124727,-0.592447 0.18709,-0.888672 0.452141,-0.701595 0.904261,-1.403165 1.356394,-2.104747 0.60805,-0.623641 1.216075,-1.247256 1.824114,-1.870887 0.654823,-0.343001 1.309619,-0.685991 1.964431,-1.028986 0.701596,-0.187092 1.403165,-0.374179 2.104747,-0.561266 0.639233,0 1.27844,0 1.917658,0 0.59246,0.04677 1.184897,0.09354 1.777344,0.140317 0.623641,0.265046 1.247256,0.530084 1.870887,0.795125 0.48332,0.389777 0.966623,0.779537 1.449935,1.169305 0.405368,0.420958 0.810718,0.841899 1.216078,1.262849 0.311819,0.592457 0.623628,1.184894 0.935442,1.777341 0.202684,0.639233 0.40536,1.27844 0.608039,1.91766 0.04677,0.46773 0.09354,0.935442 0.140317,1.403165 0.04677,0.405365 0.140316,1.216075 0.140316,1.216075 z"
       transform="translate(-12.667897,11.299589)" /><rect
       style="opacity:1;fill:#0187d5;fill-opacity:1;stroke-width:0.305386;stroke-dasharray:none"
       id="rect10-2"
       width="7.8877883"
       height="7.929101"
       x="127.45156"
       y="2.0393264"
       rx="1.7282619"
       transform="matrix(0.71705063,0.69702108,-0.68970503,0.72409044,0,0)" /><rect
       style="fill:#0187d5;fill-opacity:1;stroke-width:0.305386;stroke-dasharray:none"
       id="rect10-2-3"
       width="7.8877883"
       height="7.929101"
       x="201.96544"
       y="-36.102474"
       rx="1.7282619"
       transform="matrix(0.71705063,0.69702108,-0.68970503,0.72409044,0,0)" /><rect
       style="opacity:1;fill:#fc6f04;fill-opacity:1;stroke-width:0.305386;stroke-dasharray:none"
       id="rect10-2-6"
       width="7.8877883"
       height="7.929101"
       x="134.6342"
       y="-26.026852"
       rx="1.7282619"
       transform="matrix(0.71705063,0.69702108,-0.68970503,0.72409044,0,0)" /><rect
       style="fill:#fc6f04;fill-opacity:1;stroke-width:0.305386;stroke-dasharray:none"
       id="rect10-2-6-3"
       width="7.8877883"
       height="7.929101"
       x="207.57967"
       y="-14.587169"
       rx="1.7282619"
       transform="matrix(0.71705063,0.69702108,-0.68970503,0.72409044,0,0)" /><path
       style="opacity:1;fill:#f7f3e4;fill-opacity:1;stroke:none;stroke-width:0.264999;stroke-dasharray:none;stroke-opacity:1"
       d="m 144.21392,141.91423 c -0.25356,-0.25356 -0.76068,-0.76068 -1.49931,-1.35599 -0.73864,-0.59532 -1.70876,-1.27882 -2.4033,-1.73081 -0.69453,-0.452 -1.11345,-0.67249 -2.06156,-1.01424 -0.9481,-0.34176 -2.42533,-0.80478 -3.88055,-1.12448 -1.45522,-0.31971 -2.88835,-0.49609 -4.14513,-0.48507 -1.25678,0.011 -2.33715,0.20946 -3.19705,0.3638 -0.8599,0.15435 -1.4993,0.26459 -2.54662,0.59532 -1.04732,0.33074 -2.5025,0.88194 -3.70416,1.51033 -1.20166,0.6284 -2.14973,1.33394 -2.94349,1.97335 -0.79375,0.63942 -1.43315,1.21267 -2.14974,1.99541 -0.71659,0.78273 -1.51032,1.7749 -2.16076,2.93247 -0.65044,1.15756 -1.15754,2.48045 -1.47725,3.52777 -0.31971,1.04731 -0.452,1.819 -0.57327,2.6348 -0.12126,0.81581 -0.23151,1.67569 -0.30868,2.60175 -0.0772,0.92605 -0.12126,1.91821 -0.011,3.16398 0.11025,1.24576 0.37483,2.74503 0.69454,4.06796 0.3197,1.32293 0.69452,2.46943 1.44419,3.80339 0.74966,1.33396 1.87412,2.85528 2.91041,4.05694 1.0363,1.20165 1.98437,2.08358 3.09783,2.86632 1.11347,0.78273 2.39227,1.46623 3.57188,1.9513 1.17961,0.48507 2.25997,0.77169 3.42856,1.03628 1.16859,0.26458 2.42533,0.50711 3.72621,0.61736 1.30089,0.11026 2.64582,0.0882 3.90261,-0.0771 1.25678,-0.16536 2.42533,-0.47403 3.58289,-0.93706 1.15757,-0.46302 2.30407,-1.08037 3.35139,-1.68671 1.04732,-0.60635 1.99539,-1.20165 2.89939,-1.95131 0.90401,-0.74966 1.76388,-1.65364 2.4474,-2.48047 0.68351,-0.82683 1.19061,-1.57647 1.73081,-2.54662 0.5402,-0.97015 1.11345,-2.16075 1.53238,-3.17499 0.41893,-1.01425 0.68351,-1.85208 0.90399,-2.82223 0.22049,-0.97015 0.39687,-2.07256 0.50712,-3.06475 0.11024,-0.9922 0.15433,-1.87413 0.15433,-2.63481 0,-0.76068 -0.0441,-1.40008 -0.13229,-2.05052 -0.0882,-0.65044 -0.22048,-1.31189 -0.35277,-1.97335 1.21267,-1.71979 2.42535,-3.43958 3.0427,-4.45382 0.61735,-1.01424 0.63939,-1.32291 0.6504,-1.5434 0.011,-0.22049 0.011,-0.35278 -0.0551,-0.45199 -0.0661,-0.0992 -0.19844,-0.16537 -0.36381,-0.31971 -0.16536,-0.15434 -0.36379,-0.39687 -0.59531,-0.56224 -0.23151,-0.16537 -0.49609,-0.25356 -0.76067,-0.34175 0,0 -20.10834,22.48958 -20.10834,22.48958 -0.22049,0.22049 -0.44097,0.44097 -0.77171,0.69453 -0.33073,0.25357 -0.77169,0.54019 -1.28983,0.71658 -0.51815,0.17639 -1.11346,0.24254 -1.59853,0.24254 -0.48506,0 -0.85989,-0.0661 -1.21267,-0.18741 -0.35278,-0.12127 -0.68351,-0.29766 -1.03629,-0.52917 -0.35278,-0.23152 -0.7276,-0.51815 -1.13551,-0.97015 -0.4079,-0.452 -0.84886,-1.06935 -1.20164,-1.55442 -0.35278,-0.48508 -0.61736,-0.83785 -0.99219,-1.3119 -0.37483,-0.47405 -0.85989,-1.06935 -1.31189,-1.63159 -0.452,-0.56225 -0.87092,-1.0914 -1.24575,-1.60955 -0.37483,-0.51815 -0.70555,-1.02526 -1.05833,-1.51033 -0.35278,-0.48507 -0.7276,-0.94809 -1.03628,-1.44419 -0.30869,-0.49609 -0.55122,-1.02525 -0.69453,-1.55442 -0.14332,-0.52917 -0.18741,-1.05833 -0.0992,-1.55443 0.0882,-0.4961 0.30868,-0.95911 0.66146,-1.34496 0.35278,-0.38585 0.83784,-0.69453 1.42214,-0.84887 0.5843,-0.15434 1.26779,-0.15434 1.84106,0.0772 0.57327,0.23151 1.03628,0.69452 1.53238,1.23471 0.49609,0.5402 1.02525,1.15755 1.5875,1.87414 0.56224,0.71659 1.15754,1.53237 1.73081,2.27101 0.57327,0.73863 1.12448,1.40008 1.48828,1.79695 0.3638,0.39688 0.54019,0.52917 0.67249,0.61736 0.13229,0.0882 0.22048,0.1323 0.34175,0.13229 0.12126,0 0.2756,-0.0441 0.39687,-0.0661 0.12127,-0.0221 0.20946,-0.0221 0.52917,-0.35279 0.31971,-0.33073 0.87092,-0.99218 1.89619,-2.13872 1.02527,-1.14655 2.52455,-2.77811 3.88055,-4.29948 1.35601,-1.52137 2.56865,-2.93245 3.50573,-3.97976 0.93707,-1.04732 1.59851,-1.73081 2.16076,-2.33715 0.56224,-0.60635 1.02525,-1.1355 1.53237,-1.7198 0.50713,-0.58429 1.05834,-1.22369 1.33394,-1.5434 0.27561,-0.3197 0.27565,-0.31975 0.0221,-0.57331 z"
       id="path11"
       inkscape:path-effect="#path-effect11"
       inkscape:original-d="m 144.46748,142.16779 c -0.50712,-0.50712 -1.01423,-1.01424 -1.52135,-1.52135 -0.97016,-0.68352 -1.94028,-1.36702 -2.91042,-2.05052 -0.41893,-0.2205 -0.83785,-0.44098 -1.25677,-0.66146 -1.47729,-0.46303 -2.95452,-0.92604 -4.43177,-1.38907 -1.43319,-0.17639 -2.86632,-0.35277 -4.29948,-0.52916 -1.0804,0.19844 -2.16077,0.39687 -3.24115,0.59531 -0.63942,0.11025 -1.27882,0.22049 -1.91823,0.33073 -1.45523,0.55123 -2.91041,1.10243 -4.36562,1.65365 -0.94811,0.70556 -1.89618,1.41111 -2.84427,2.11666 -0.63942,0.57328 -1.27882,1.14653 -1.91823,1.71979 -0.79377,0.99221 -1.5875,1.98438 -2.38125,2.97657 -0.50713,1.32294 -1.01424,2.64583 -1.52135,3.96875 -0.1323,0.77171 -0.26459,1.5434 -0.39688,2.3151 -0.11024,0.85991 -0.22049,1.71979 -0.33073,2.57969 -0.0441,0.99221 -0.0882,1.98437 -0.13229,2.97656 0.26459,1.49934 0.52917,2.99861 0.79375,4.49792 0.37483,1.14655 0.74965,2.29305 1.12448,3.43958 1.1245,1.52139 2.24896,3.04271 3.37344,4.56406 0.94811,0.88196 1.89618,1.76389 2.84427,2.64584 1.27884,0.68352 2.55764,1.36701 3.83645,2.05052 1.08041,0.28664 2.16077,0.57326 3.24115,0.85989 1.2568,0.24254 2.51354,0.48507 3.77031,0.72761 1.345,-0.022 2.68993,-0.0441 4.0349,-0.0661 1.1686,-0.30869 2.33715,-0.61736 3.50573,-0.92604 1.14655,-0.61737 2.29305,-1.23472 3.43958,-1.85208 0.94811,-0.59533 1.89618,-1.19063 2.84427,-1.78594 0.85992,-0.90401 1.71979,-1.80799 2.57969,-2.71198 0.50713,-0.74967 1.01423,-1.49931 1.52135,-2.24896 0.57328,-1.19065 1.14653,-2.38125 1.7198,-3.57187 0.26458,-0.83787 0.52916,-1.6757 0.79375,-2.51355 0.17639,-1.10245 0.35277,-2.20486 0.52916,-3.30729 0.0441,-0.88196 0.0882,-1.76389 0.13229,-2.64583 -0.0441,-0.63942 -0.0882,-1.27882 -0.13229,-1.91823 -0.13229,-0.66147 -0.39687,-1.98438 -0.39687,-1.98438 0,0 2.42535,-3.43958 3.63802,-5.15937 0.022,-0.30869 0.0441,-0.61736 0.0661,-0.92604 0,-0.1323 0,-0.26459 0,-0.39688 -0.13229,-0.0661 -0.26458,-0.13229 -0.39687,-0.19843 -0.19844,-0.24254 -0.39688,-0.48507 -0.59531,-0.72761 -0.26459,-0.0882 -0.79375,-0.26458 -0.79375,-0.26458 0,0 -20.10834,22.48958 -20.10834,22.48958 0,0 -0.44097,0.44097 -0.66146,0.66146 -0.44098,0.28664 -0.88194,0.57326 -1.32291,0.8599 -0.59532,0.0661 -1.19063,0.13229 -1.78594,0.19843 -0.37483,-0.0661 -0.74965,-0.13229 -1.12448,-0.19843 -0.33073,-0.1764 -0.66146,-0.35278 -0.99219,-0.52917 -0.37483,-0.28664 -0.74965,-0.57327 -1.12448,-0.8599 -0.44098,-0.61737 -0.88194,-1.23472 -1.32291,-1.85208 -0.26459,-0.35279 -0.52917,-0.70556 -0.79375,-1.05833 -0.48508,-0.59533 -0.97014,-1.19063 -1.45521,-1.78594 -0.41893,-0.52918 -0.83785,-1.05833 -1.25677,-1.5875 -0.33074,-0.50713 -0.66146,-1.01424 -0.99219,-1.52136 -0.37483,-0.46302 -0.74965,-0.92604 -1.12448,-1.38906 -0.24254,-0.52917 -0.48507,-1.05833 -0.7276,-1.5875 -0.0441,-0.52917 -0.0882,-1.05833 -0.13229,-1.5875 0.22049,-0.46303 0.44097,-0.92604 0.66146,-1.38906 0.48507,-0.30869 0.97013,-0.61736 1.4552,-0.92604 0.68353,0 1.36702,0 2.05052,0 0.46304,0.46303 0.92605,0.92604 1.38907,1.38906 0.52917,0.61737 1.05833,1.23472 1.5875,1.85208 0.59532,0.81582 1.19062,1.6316 1.78593,2.4474 0.55123,0.66147 1.10244,1.32292 1.65365,1.98437 0.17639,0.1323 0.35278,0.26459 0.52917,0.39688 0.0882,0.0441 0.17639,0.0882 0.26458,0.13229 0.15434,-0.0441 0.30868,-0.0882 0.46302,-0.13229 0.0882,0 0.17639,0 0.26458,0 0.55123,-0.66147 1.10244,-1.32292 1.65365,-1.98438 1.49934,-1.63162 2.99861,-3.26319 4.49792,-4.89479 1.2127,-1.41114 2.42534,-2.82222 3.63802,-4.23333 0.66147,-0.68352 1.32291,-1.36701 1.98437,-2.05052 0.46303,-0.52918 0.92604,-1.05833 1.38906,-1.5875 0.55123,-0.63942 1.10244,-1.27882 1.65365,-1.91823 z"
       transform="translate(-8.7239265,13.163159)" /><path
       style="opacity:1;fill:#0081d0;fill-opacity:1;stroke-width:0.531;stroke-dasharray:none;paint-order:markers fill stroke"
       d="m 49.406433,204.09724 c -3.89868,-0.54351 -7.38392,-2.97698 -9.10807,-6.35939 l -1.46316,-2.87044 1.9e-4,-29.40615 1.8e-4,-29.40616 51.60961,-0.17665 51.609617,-0.17665 v 6.55994 6.55994 l -1.59874,1.52335 -1.5987,1.52335 -1.46063,-1.15693 c -5.72457,-4.5343 -9.44982,-5.9023 -16.11349,-5.91728 -11.93894,-0.0268 -20.74398,7.10643 -23.738457,19.23133 -1.18027,4.77899 -0.42296,12.25366 1.6732,16.51478 4.113557,8.3621 12.580037,13.47449 22.266917,13.44563 7.7044,-0.0229 13.01421,-2.03993 17.75772,-6.74544 l 2.81218,-2.78963 v 4.67011 c 0,3.91268 -0.21434,5.0979 -1.32161,7.30779 -1.73851,3.46975 -4.15847,5.71422 -7.61008,7.05816 -2.76046,1.07482 -3.54586,1.09396 -42.032727,1.02458 -21.57084,-0.0389 -40.32863,-0.2253 -41.68395,-0.41424 z"
       id="path18" /><path
       style="opacity:1;fill:#fd7002;fill-opacity:1;stroke-width:0.54009;stroke-dasharray:none"
       d="m 39.205273,128.30622 c 0.2096,-2.49067 0.72971,-5.39355 1.15578,-6.45086 1.70337,-4.22685 5.89677,-7.10438 10.38452,-7.1259 2.47338,-0.0118 2.51583,0.0172 2.51583,1.72399 0,0.95483 0.59249,2.784 1.31662,4.06484 4.21086,7.44799 15.63361,5.19317 16.55363,-3.26763 l 0.27547,-2.53326 h 20.85212 20.852127 v 2.22331 c 0,2.64481 0.90482,4.60729 3.13976,6.80994 1.39318,1.37303 2.15145,1.6511 4.94653,1.81396 5.5783,0.32502 8.99611,-2.54855 9.71529,-8.16831 0.39058,-3.0519 0.83958,-3.22954 4.18327,-1.655 4.46206,2.10116 7.14566,7.32107 7.14566,13.89901 v 3.1944 H 90.533023 38.824193 Z"
       id="path21" /><path
       style="opacity:1;fill:#f7f3e4;fill-opacity:1;stroke-width:0.264999;stroke-dasharray:none"
       d="m 78.641353,97.960325 c 0.0055,1.697742 0.01654,5.093235 -0.0193,7.041785 -0.03583,1.94855 -0.11851,2.45014 -0.28939,2.88561 -0.17088,0.43546 -0.429947,0.80477 -0.72485,1.15755 -0.294903,0.35278 -0.625625,0.68901 -1.005968,0.93706 -0.380343,0.24805 -0.810283,0.4079 -1.317407,0.49334 -0.507123,0.0854 -1.091399,0.0965 -1.593008,0.006 -0.50161,-0.091 -0.920527,-0.28387 -1.309136,-0.55397 -0.388609,-0.2701 -0.746892,-0.61736 -1.052818,-0.97014 -0.305927,-0.35278 -0.559484,-0.71107 -0.744142,-1.12449 -0.184658,-0.41341 -0.30041,-0.88193 -0.333483,-2.87461 -0.03307,-1.99268 0.01653,-5.509363 0.143316,-7.449645 0.126782,-1.940282 0.330727,-2.304076 0.564997,-2.645833 0.234269,-0.341757 0.498847,-0.661456 0.857142,-0.939821 0.358294,-0.278366 0.810282,-0.515384 1.259526,-0.675237 0.449243,-0.159853 0.895721,-0.242534 1.32016,-0.256314 0.424439,-0.01378 0.82682,0.04134 1.193382,0.135049 0.366561,0.09371 0.697283,0.225997 1.028016,0.435462 0.330733,0.209465 0.661454,0.49609 0.923283,0.766188 0.261829,0.270098 0.454751,0.523652 0.600824,0.760677 0.146073,0.237025 0.24529,0.457507 0.319705,0.650433 0.07441,0.192927 0.124023,0.358289 0.148827,0.440971 0.02481,0.08268 0.02481,0.08266 0.03032,1.780405 z"
       id="path7-5"
       inkscape:path-effect="#path-effect7-2"
       inkscape:original-d="m 78.635841,96.262582 c 0.01103,3.395485 0.02204,6.790978 0.03307,10.186458 -0.08268,0.50162 -0.165365,1.00321 -0.248047,1.50482 -0.259078,0.36932 -0.518142,0.73863 -0.777214,1.10794 -0.330734,0.33625 -0.661458,0.67248 -0.992187,1.00872 -0.429956,0.15986 -0.859896,0.31971 -1.289844,0.47956 -0.584301,0.011 -1.168577,0.022 -1.752865,0.0331 -0.41893,-0.19293 -0.837848,-0.38585 -1.25677,-0.57878 -0.358296,-0.34727 -0.716579,-0.69453 -1.07487,-1.0418 -0.253564,-0.35829 -0.507119,-0.71658 -0.760677,-1.07487 -0.115758,-0.46854 -0.231511,-0.93706 -0.347266,-1.4056 0.04961,-3.51682 0.09922,-7.033503 0.148828,-10.550257 0.203954,-0.36381 0.4079,-0.727604 0.611849,-1.091406 0.264589,-0.319712 0.529167,-0.639411 0.79375,-0.959115 0.452006,-0.237027 0.903994,-0.474046 1.35599,-0.711067 0.446492,-0.08268 0.892969,-0.165365 1.339453,-0.248047 0.402394,0.05512 0.804775,0.110244 1.207161,0.165364 0.330737,0.132295 0.661459,0.264584 0.992188,0.396875 0.330737,0.286639 0.661458,0.573265 0.992187,0.859896 0.192929,0.253564 0.38585,0.507119 0.578776,0.760677 0.09922,0.220491 0.198438,0.440973 0.297657,0.661459 0.04961,0.165367 0.09922,0.330729 0.148828,0.496093 z"
       transform="translate(-12.245187,9.6268508)" /><path
       style="opacity:1;fill:#f7f3e4;fill-opacity:1;stroke-width:0.264999;stroke-dasharray:none"
       d="m 78.641353,97.960325 c 0.0055,1.697742 0.01654,5.093235 -0.0193,7.041785 -0.03583,1.94855 -0.11851,2.45014 -0.28939,2.88561 -0.17088,0.43546 -0.429947,0.80477 -0.72485,1.15755 -0.294903,0.35278 -0.625625,0.68901 -1.005968,0.93706 -0.380343,0.24805 -0.810283,0.4079 -1.317407,0.49334 -0.507123,0.0854 -1.091399,0.0965 -1.593008,0.006 -0.50161,-0.091 -0.920527,-0.28387 -1.309136,-0.55397 -0.388609,-0.2701 -0.746892,-0.61736 -1.052818,-0.97014 -0.305927,-0.35278 -0.559484,-0.71107 -0.744142,-1.12449 -0.184658,-0.41341 -0.30041,-0.88193 -0.333483,-2.87461 -0.03307,-1.99268 0.01653,-5.509363 0.143316,-7.449645 0.126782,-1.940282 0.330727,-2.304076 0.564997,-2.645833 0.234269,-0.341757 0.498847,-0.661456 0.857142,-0.939821 0.358294,-0.278366 0.810282,-0.515384 1.259526,-0.675237 0.449243,-0.159853 0.895721,-0.242534 1.32016,-0.256314 0.424439,-0.01378 0.82682,0.04134 1.193382,0.135049 0.366561,0.09371 0.697283,0.225997 1.028016,0.435462 0.330733,0.209465 0.661454,0.49609 0.923283,0.766188 0.261829,0.270098 0.454751,0.523652 0.600824,0.760677 0.146073,0.237025 0.24529,0.457507 0.319705,0.650433 0.07441,0.192927 0.124023,0.358289 0.148827,0.440971 0.02481,0.08268 0.02481,0.08266 0.03032,1.780405 z"
       id="path7"
       inkscape:path-effect="#path-effect7"
       inkscape:original-d="m 78.635841,96.262582 c 0.01103,3.395485 0.02204,6.790978 0.03307,10.186458 -0.08268,0.50162 -0.165365,1.00321 -0.248047,1.50482 -0.259078,0.36932 -0.518142,0.73863 -0.777214,1.10794 -0.330734,0.33625 -0.661458,0.67248 -0.992187,1.00872 -0.429956,0.15986 -0.859896,0.31971 -1.289844,0.47956 -0.584301,0.011 -1.168577,0.022 -1.752865,0.0331 -0.41893,-0.19293 -0.837848,-0.38585 -1.25677,-0.57878 -0.358296,-0.34727 -0.716579,-0.69453 -1.07487,-1.0418 -0.253564,-0.35829 -0.507119,-0.71658 -0.760677,-1.07487 -0.115758,-0.46854 -0.231511,-0.93706 -0.347266,-1.4056 0.04961,-3.51682 0.09922,-7.033503 0.148828,-10.550257 0.203954,-0.36381 0.4079,-0.727604 0.611849,-1.091406 0.264589,-0.319712 0.529167,-0.639411 0.79375,-0.959115 0.452006,-0.237027 0.903994,-0.474046 1.35599,-0.711067 0.446492,-0.08268 0.892969,-0.165365 1.339453,-0.248047 0.402394,0.05512 0.804775,0.110244 1.207161,0.165364 0.330737,0.132295 0.661459,0.264584 0.992188,0.396875 0.330737,0.286639 0.661458,0.573265 0.992187,0.859896 0.192929,0.253564 0.38585,0.507119 0.578776,0.760677 0.09922,0.220491 0.198438,0.440973 0.297657,0.661459 0.04961,0.165367 0.09922,0.330729 0.148828,0.496093 z"
       transform="translate(47.491663,9.8666454)" /><path
       style="opacity:1;fill:#000000;fill-opacity:0;stroke-width:0.374766;stroke-dasharray:none"
       d="m 39.279041,130.38573 c 0.794835,-7.35106 1.766967,-10.05203 4.356047,-12.10262 2.369397,-1.87659 4.528741,-2.63346 7.155683,-2.50813 l 2.334577,0.11138 0.259768,1.82539 c 1.003459,7.0513 9.666473,10.16519 15.063496,5.41452 1.665658,-1.46616 2.561828,-3.25906 3.011038,-6.02383 l 0.227965,-1.40317 h 20.511267 20.511298 l 0.24511,2.08567 c 0.30207,2.57006 1.2206,4.40636 3.12618,6.24968 3.37749,3.26716 10.69626,2.43359 13.38591,-1.5246 0.50255,-0.73958 1.18734,-2.57455 1.52177,-4.07771 0.71155,-3.19829 1.04318,-3.33785 4.19706,-1.7662 4.20468,2.09528 6.40218,6.09084 6.72238,12.22291 l 0.1905,3.64823 H 90.572753 39.046419 Z"
       id="path47" /><path
       style="opacity:1;fill:#000000;fill-opacity:0;stroke-width:0.53;stroke-dasharray:none"
       d="m 117.87685,188.67696 c -4.035,-1.04047 -6.75804,-2.66529 -9.41004,-5.61494 -4.08434,-4.5428 -4.87748,-6.73973 -4.8773,-13.50986 2.1e-4,-7.08914 1.08556,-10.02043 5.10075,-13.77617 5.0705,-4.74286 11.76472,-6.49813 18.34914,-4.81128 3.01842,0.77329 7.47384,3.22788 8.30752,4.5768 0.30446,0.49259 -13.89854,16.92058 -14.62913,16.92092 -0.18375,8e-5 -0.99383,-0.89282 -1.80017,-1.98422 -3.14854,-4.26152 -5.13202,-5.95313 -6.98035,-5.95313 -2.04364,0 -3.14896,1.67938 -2.58479,3.92723 0.37518,1.49485 6.67195,10.08374 8.45966,11.53913 1.13493,0.92394 3.26006,1.20138 4.7685,0.62253 0.45188,-0.1734 5.48323,-5.53122 11.18074,-11.90625 5.69751,-6.37503 10.59349,-11.59097 10.87993,-11.59097 1.23034,0 0.98893,1.70188 -0.56086,3.95446 -1.5616,2.26967 -1.67601,2.75505 -1.78454,7.56973 -0.10353,4.59274 -0.30686,5.55623 -1.8955,8.98253 -4.12411,8.89457 -13.34569,13.42008 -22.52356,11.05349 z"
       id="path48" /><path
       style="opacity:1;fill:#f36806;fill-opacity:1;stroke:none;stroke-width:0.358;stroke-dasharray:none;stroke-opacity:1;paint-order:markers fill stroke"
       d="m 378.58698,61.859947 c 0.93544,0.43654 1.87087,0.873073 3.03239,1.317414 1.16152,0.44434 2.54907,0.896465 3.89768,1.676013 1.34861,0.779548 2.65821,1.886476 4.58369,3.617068 1.92548,1.730592 4.46672,4.08475 6.34541,6.111556 1.87869,2.026805 3.09474,3.72616 4.08476,5.13713 0.99002,1.410971 1.75396,2.533479 2.26845,3.367587 0.5145,0.834107 0.77954,1.379771 0.90426,1.792931 0.12472,0.413161 0.10912,0.693788 0.0156,0.98222 -0.0936,0.288432 -0.26504,0.584654 -1.44996,1.3642 -1.18491,0.779545 -3.38318,2.042374 -5.94008,3.359802 -2.55691,1.317428 -5.4723,2.689379 -7.44454,3.733969 -1.97225,1.04459 -3.00121,1.761745 -4.0302,2.478918 0.343,0.265042 0.686,0.530092 1.05239,0.888681 0.36638,0.358588 0.75614,0.810712 1.06016,1.192687 0.30402,0.381975 0.52229,0.69379 0.6626,0.935449 0.14032,0.241658 0.20268,0.413138 0.26504,0.584638 0.99781,-0.436539 1.99562,-0.873081 2.93107,-1.270647 0.93545,-0.397566 1.80852,-0.756149 3.01682,-1.301833 1.2083,-0.545684 2.75174,-1.278428 4.29524,-2.026791 1.5435,-0.748364 3.08695,-1.512294 4.24066,-2.089152 1.15372,-0.576858 1.91765,-0.966616 2.72058,-1.488911 0.80293,-0.522294 1.64481,-1.177091 2.26066,-1.761753 0.61584,-0.584662 1.0056,-1.099147 1.30182,-1.512303 0.29623,-0.413156 0.4989,-0.724962 0.64701,-1.169299 0.14812,-0.444337 0.24166,-1.021188 0.28064,-1.42655 0.039,-0.405363 0.0234,-0.63922 -0.0312,-0.966634 -0.0546,-0.327415 -0.14811,-0.748344 -0.3508,-1.278434 -0.20268,-0.53009 -0.51449,-1.169302 -0.84969,-1.761752 -0.3352,-0.59245 -0.69379,-1.138119 -1.22388,-1.878687 -0.53009,-0.740569 -1.23166,-1.675997 -1.90206,-2.478924 -0.6704,-0.802927 -1.30961,-1.473318 -2.06576,-2.315226 -0.75616,-0.841909 -1.62922,-1.855289 -2.64263,-2.938853 -1.01341,-1.083564 -2.1671,-2.237253 -3.24287,-3.328614 -1.07577,-1.091361 -2.07356,-2.120336 -3.06358,-3.118148 -0.99002,-0.997811 -1.97222,-1.96441 -3.14934,-3.024593 -1.17711,-1.060184 -2.54908,-2.213882 -3.57807,-2.99342 -1.02899,-0.779539 -1.71497,-1.18489 -2.24505,-1.473317 -0.53008,-0.288428 -0.90426,-0.459928 -1.32521,-0.576858 -0.42095,-0.11693 -0.88868,-0.179295 -1.29404,-0.163701 -0.40535,0.01559 -0.74833,0.109134 -1.13031,0.280634 -0.38198,0.171501 -0.80293,0.42095 -1.14593,0.740559 -0.34299,0.319609 -0.60804,0.709379 -0.88867,1.184901 -0.28063,0.475521 -0.57684,1.036777 -0.87306,1.598043 z"
       id="path56"
       inkscape:path-effect="#path-effect56"
       inkscape:original-d="m 378.58698,61.859947 c 0,0 1.87087,0.87308 2.80633,1.309619 1.38758,0.452141 2.77513,0.904263 4.16271,1.356394 1.30964,1.106964 2.61925,2.213882 3.92885,3.320822 2.54135,2.354247 5.0826,4.708401 7.62387,7.0626 1.2161,1.699421 2.43215,3.398777 3.64823,5.098166 0.76396,1.122553 1.52789,2.245064 2.29185,3.367596 0.26503,0.545684 0.53006,1.09135 0.79512,1.637024 -0.0156,0.280639 -0.0312,0.561266 -0.0468,0.841899 -0.1715,0.29623 -0.343,0.592447 -0.51448,0.888672 -2.19834,1.262875 -4.39661,2.525697 -6.5949,3.788545 -2.91552,1.372013 -5.83091,2.743967 -8.74638,4.115951 -1.02902,0.717187 -3.08697,2.15152 -3.08697,2.15152 0,0 0.68601,0.530085 1.02899,0.795126 0.38978,0.452141 0.77954,0.904264 1.1693,1.356394 0.21828,0.31182 0.43656,0.623628 0.65481,0.935443 0.0624,0.171502 0.18709,0.514492 0.18709,0.514492 0,0 1.99562,-0.87308 2.99342,-1.309618 0.8731,-0.358595 1.74617,-0.717175 2.61924,-1.075762 1.54353,-0.732776 3.08697,-1.465527 4.63045,-2.19829 1.54352,-0.763961 3.08697,-1.527892 4.63044,-2.291837 0.76396,-0.389776 1.52789,-0.779536 2.29185,-1.169305 0.8419,-0.654822 1.68378,-1.309618 2.52569,-1.96443 0.38978,-0.514504 0.77954,-1.028989 1.1693,-1.543482 0.20269,-0.311819 0.40536,-0.623628 0.60804,-0.935442 0.0935,-0.576868 0.18708,-1.153713 0.28064,-1.730571 -0.0156,-0.233865 -0.0312,-0.467722 -0.0468,-0.701582 -0.0936,-0.420958 -0.18709,-0.841899 -0.28064,-1.262848 -0.31181,-0.639234 -0.62363,-1.278441 -0.93544,-1.917661 -0.35859,-0.545684 -0.71718,-1.09135 -1.07577,-1.637024 -0.70159,-0.935464 -1.40316,-1.870888 -2.10473,-2.80633 -0.63923,-0.670414 -1.27844,-1.340802 -1.91765,-2.011204 -0.8731,-1.013417 -1.74617,-2.026793 -2.61924,-3.040192 -1.15374,-1.153734 -2.30743,-2.307426 -3.46115,-3.461139 -0.99782,-1.029009 -1.99562,-2.057976 -2.99341,-3.086962 -0.98224,-0.966645 -1.96443,-1.93325 -2.94667,-2.899876 -1.372,-1.153737 -2.74397,-2.307426 -4.11594,-3.461139 -0.68601,-0.405368 -1.37199,-0.810717 -2.05798,-1.216078 -0.37417,-0.1715 -0.74835,-0.342995 -1.12252,-0.514493 -0.46773,-0.06236 -0.93546,-0.124727 -1.40316,-0.187089 -0.34301,0.09355 -0.68599,0.187089 -1.02899,0.280633 -0.42096,0.249457 -0.84191,0.498904 -1.26286,0.748355 -0.26503,0.389777 -0.53009,0.779537 -0.79513,1.169305 -0.29622,0.561277 -0.88865,1.683798 -0.88865,1.683798 z"
       transform="matrix(1.012061,0,0,1.000513,-248.35697,15.128963)" /><path
       style="opacity:1;fill:#fc6f04;fill-opacity:1;stroke:none;stroke-width:0.358;stroke-dasharray:none;stroke-opacity:1;paint-order:markers fill stroke"
       d="m 166.62634,73.750951 c 0.50711,-0.507117 1.21267,-1.036287 1.83003,-1.367017 0.61737,-0.33073 1.14653,-0.46302 1.56545,-0.418919 0.41893,0.0441 0.7276,0.264579 0.94809,0.573264 0.22049,0.308686 0.35278,0.705554 0.33073,1.102432 -0.022,0.396878 -0.19844,0.793747 -0.48508,1.190625 -0.28663,0.396879 -0.6835,0.793749 -1.08038,1.234724 -0.39687,0.440975 -0.79374,0.926035 -1.16857,1.344962 -0.37483,0.418927 -0.7276,0.771698 -1.10243,0.926038 -0.37483,0.154341 -0.7717,0.110244 -1.14653,0.0441 -0.37483,-0.06615 -0.7276,-0.154339 -1.01424,-0.396877 -0.28663,-0.242539 -0.50711,-0.639405 -0.57326,-0.992186 -0.0661,-0.352782 0.022,-0.661454 0.1764,-0.948089 0.15434,-0.286635 0.37482,-0.551212 0.63941,-0.926043 0.26458,-0.374831 0.57326,-0.859894 1.08038,-1.367011 z"
       id="path57"
       inkscape:path-effect="#path-effect57"
       inkscape:original-d="m 166.4279,73.772999 c 0.70555,-0.529166 1.41111,-1.058333 2.11666,-1.5875 0.52918,-0.132294 1.05834,-0.264583 1.5875,-0.396875 0.30869,0.220491 0.61736,0.440973 0.92605,0.661459 0.13229,0.396883 0.26458,0.79375 0.39687,1.190625 -0.17639,0.396882 -0.35278,0.79375 -0.52917,1.190625 -0.39688,0.396882 -0.79375,0.79375 -1.19062,1.190625 -0.39688,0.485079 -0.79375,0.970139 -1.19063,1.455208 -0.35278,0.352785 -0.70555,0.705556 -1.05833,1.058333 -0.39688,-0.0441 -0.79375,-0.08819 -1.19062,-0.132292 -0.35279,-0.0882 -0.70556,-0.176389 -1.05834,-0.264583 -0.22049,-0.396883 -0.44097,-0.79375 -0.66146,-1.190625 0.0882,-0.308687 0.17639,-0.61736 0.26459,-0.926041 0.22049,-0.264589 0.44097,-0.529167 0.66146,-0.79375 0.30868,-0.48508 0.61736,-0.97014 0.92604,-1.455209 z"
       transform="rotate(-13.628099,185.8658,104.28372)" /><path
       style="fill:#fc6f04;fill-opacity:1;stroke:none;stroke-width:0.358;stroke-dasharray:none;stroke-opacity:1;paint-order:markers fill stroke"
       d="m 166.62634,73.750951 c 0.50711,-0.507117 1.21267,-1.036287 1.83003,-1.367017 0.61737,-0.33073 1.14653,-0.46302 1.56545,-0.418919 0.41893,0.0441 0.7276,0.264579 0.94809,0.573264 0.22049,0.308686 0.35278,0.705554 0.33073,1.102432 -0.022,0.396878 -0.19844,0.793747 -0.48508,1.190625 -0.28663,0.396879 -0.6835,0.793749 -1.08038,1.234724 -0.39687,0.440975 -0.79374,0.926035 -1.16857,1.344962 -0.37483,0.418927 -0.7276,0.771698 -1.10243,0.926038 -0.37483,0.154341 -0.7717,0.110244 -1.14653,0.0441 -0.37483,-0.06615 -0.7276,-0.154339 -1.01424,-0.396877 -0.28663,-0.242539 -0.50711,-0.639405 -0.57326,-0.992186 -0.0661,-0.352782 0.022,-0.661454 0.1764,-0.948089 0.15434,-0.286635 0.37482,-0.551212 0.63941,-0.926043 0.26458,-0.374831 0.57326,-0.859894 1.08038,-1.367011 z"
       id="path57-7"
       inkscape:path-effect="#path-effect57-4"
       inkscape:original-d="m 166.4279,73.772999 c 0.70555,-0.529166 1.41111,-1.058333 2.11666,-1.5875 0.52918,-0.132294 1.05834,-0.264583 1.5875,-0.396875 0.30869,0.220491 0.61736,0.440973 0.92605,0.661459 0.13229,0.396883 0.26458,0.79375 0.39687,1.190625 -0.17639,0.396882 -0.35278,0.79375 -0.52917,1.190625 -0.39688,0.396882 -0.79375,0.79375 -1.19062,1.190625 -0.39688,0.485079 -0.79375,0.970139 -1.19063,1.455208 -0.35278,0.352785 -0.70555,0.705556 -1.05833,1.058333 -0.39688,-0.0441 -0.79375,-0.08819 -1.19062,-0.132292 -0.35279,-0.0882 -0.70556,-0.176389 -1.05834,-0.264583 -0.22049,-0.396883 -0.44097,-0.79375 -0.66146,-1.190625 0.0882,-0.308687 0.17639,-0.61736 0.26459,-0.926041 0.22049,-0.264589 0.44097,-0.529167 0.66146,-0.79375 0.30868,-0.48508 0.61736,-0.97014 0.92604,-1.455209 z"
       transform="rotate(20.049424,130.9242,85.040756)" /><path
       style="opacity:1;fill:#f1f9ea;fill-opacity:1;stroke:none;stroke-width:0.531;stroke-dasharray:none;stroke-opacity:1;paint-order:markers fill stroke"
       d="m 73.69144,167.03862 c 0.352778,-0.7276 0.705557,-1.45521 0.903994,-2.22691 0.198437,-0.77171 0.242534,-1.5875 0.297656,-2.74506 0.05512,-1.15757 0.121266,-2.65685 0.154339,-3.71519 0.03307,-1.05834 0.03307,-1.67568 0.09922,-2.13871 0.06615,-0.46302 0.198437,-0.7717 0.385853,-1.12448 0.187415,-0.35278 0.429947,-0.74965 0.716581,-1.1355 0.286633,-0.38585 0.617356,-0.76067 1.025261,-1.15755 0.407904,-0.39688 0.892967,-0.8158 1.289844,-1.1355 0.396876,-0.31971 0.705549,-0.54019 1.058331,-0.87093 0.352783,-0.33073 0.749648,-0.77169 1.168577,-1.30087 0.418929,-0.52917 0.859893,-1.14652 1.1796,-1.85208 0.319708,-0.70557 0.51814,-1.4993 0.639408,-2.14974 0.121269,-0.65044 0.165365,-1.15755 0.187414,-1.88516 0.02205,-0.72761 0.02205,-1.67569 0.05512,-2.66789 0.03307,-0.99219 0.09922,-2.02845 0.154339,-3.18602 0.05512,-1.15756 0.09922,-2.43636 0.01102,-3.43958 -0.0882,-1.00321 -0.308681,-1.73081 -0.507119,-2.19383 -0.198439,-0.46302 -0.374822,-0.66145 -0.584286,-0.83784 -0.209464,-0.17639 -0.451996,-0.33073 -0.826827,-0.30868 -0.374831,0.0221 -0.881939,0.22048 -1.223695,0.46302 -0.341757,0.24254 -0.518138,0.52916 -0.661456,0.97014 -0.143319,0.44098 -0.25356,1.03628 -0.308681,2.64585 -0.05512,1.60958 -0.05512,4.23331 -0.03307,6.03028 0.02205,1.79697 0.06614,2.76709 0.05512,3.45061 -0.01103,0.68351 -0.07717,1.08037 -0.231511,1.42213 -0.154344,0.34176 -0.396872,0.62838 -0.617362,0.84887 -0.220489,0.22048 -0.418925,0.37482 -0.716585,0.56224 -0.29766,0.18741 -0.694526,0.40789 -0.937062,0.51814 -0.242536,0.11024 -0.330726,0.11024 -0.429945,0.011 -0.09922,-0.0992 -0.209458,-0.29765 -0.28663,-0.49609 -0.07717,-0.19844 -0.121267,-0.39687 -0.165365,-0.63941 -0.0441,-0.24254 -0.08819,-0.52917 -0.09922,-1.05834 -0.01102,-0.52917 0.01103,-1.30086 0.03308,-2.01744 0.02205,-0.71659 0.0441,-1.37804 0.03308,-2.09463 -0.01102,-0.71658 -0.05512,-1.48827 -0.07717,-2.25998 -0.02205,-0.77171 -0.02205,-1.54339 -0.02205,-2.43637 0,-0.89298 0,-1.9072 -0.03307,-2.63481 -0.03307,-0.7276 -0.09922,-1.16857 -0.264585,-1.56545 -0.165366,-0.39687 -0.429949,-0.74965 -0.771704,-1.02526 -0.341755,-0.2756 -0.760673,-0.47404 -1.146527,-0.46301 -0.385853,0.011 -0.738628,0.23151 -1.014237,0.54019 -0.275608,0.30869 -0.474039,0.70555 -0.573258,1.19063 -0.09922,0.48507 -0.09922,1.05832 -0.110245,2.30409 -0.01102,1.24577 -0.03307,3.16396 -0.05512,5.04913 -0.02205,1.88518 -0.0441,3.73722 -0.0441,4.89478 0,1.15756 0.02205,1.62057 2e-6,1.92925 -0.02205,0.30868 -0.08819,0.46302 -0.198438,0.58429 -0.110245,0.12127 -0.264584,0.20946 -0.529168,0.19843 -0.264585,-0.011 -0.639404,-0.12127 -0.948087,-0.3197 -0.308682,-0.19844 -0.551215,-0.48507 -0.815801,-0.88195 -0.264586,-0.39688 -0.551213,-0.90399 -0.727603,-1.57648 -0.176389,-0.67249 -0.242534,-1.51032 -0.28663,-3.38448 -0.0441,-1.87416 -0.06614,-4.78452 -0.07717,-6.53739 -0.01102,-1.75287 -0.01102,-2.34817 -0.07717,-2.70095 -0.06615,-0.35278 -0.198437,-0.46302 -0.293245,-0.60413 -0.09481,-0.14111 -0.132292,-0.25356 -0.272302,-0.37593 -0.140009,-0.12237 -0.382541,-0.25466 -0.70225,-0.34286 -0.319709,-0.0882 -0.716576,-0.13229 -0.997697,-0.0827 -0.281122,0.0496 -0.446488,0.19293 -0.600827,0.33624 -0.154339,0.14332 -0.297653,0.28663 -0.413409,0.44649 -0.115755,0.15985 -0.203949,0.33624 -0.237021,1.07488 -0.03307,0.73864 -0.01102,2.03948 -0.02205,3.78135 -0.01102,1.74186 -0.05512,3.92463 -0.06614,5.42394 -0.01102,1.49931 0.01103,2.3151 0.0441,2.93247 0.03307,0.61736 0.07717,1.03627 0.209465,1.46622 0.132295,0.42996 0.352776,0.87092 0.617361,1.3119 0.264585,0.44097 0.573261,0.88194 0.948091,1.33394 0.374831,0.452 0.815793,0.91501 1.223697,1.28984 0.407904,0.37483 0.782723,0.66146 1.212676,1.04731 0.429953,0.38586 0.915015,0.87092 1.389063,1.48828 0.474049,0.61737 0.937061,1.36701 1.289841,2.02847 0.352781,0.66147 0.595309,1.23472 0.727601,1.90721 0.132292,0.67249 0.154342,1.44418 0.198441,2.24896 0.0441,0.80478 0.110243,1.64261 0.143316,2.39227 0.03307,0.74966 0.03307,1.41111 0.0441,1.86311 0.01103,0.452 0.03307,0.69452 0.07717,0.89296 0.0441,0.19844 0.110244,0.35278 0.220489,0.59532 0.110246,0.24254 0.264582,0.57326 0.474046,0.93707 0.209464,0.3638 0.474043,0.76067 0.738626,1.15754 z"
       id="path61"
       inkscape:path-effect="#path-effect61"
       inkscape:original-d="m 73.69144,167.03862 c 0,0 0.705556,-1.45521 1.058333,-2.18281 0.0441,-0.81581 0.08819,-1.6316 0.132292,-2.4474 0.06615,-1.49933 0.132291,-2.99861 0.198437,-4.49791 0,-0.61738 0,-1.23472 0,-1.85209 0.132295,-0.30868 0.264584,-0.61736 0.396875,-0.92604 0.242541,-0.39688 0.485069,-0.79375 0.727604,-1.19062 0.330737,-0.37483 0.661459,-0.74965 0.992188,-1.12448 0.485079,-0.41893 0.97014,-0.83785 1.455208,-1.25677 0.308687,-0.22049 0.61736,-0.44097 0.926042,-0.66146 0.396883,-0.44098 0.79375,-0.88194 1.190625,-1.32292 0.440981,-0.61737 0.881943,-1.23472 1.322916,-1.85208 0.198443,-0.79377 0.396875,-1.5875 0.595313,-2.38125 0.0441,-0.50713 0.08819,-1.01424 0.132292,-1.52135 0,-0.94811 0,-1.89619 0,-2.84427 0.06615,-1.03631 0.132291,-2.07257 0.198437,-3.10886 0.0441,-1.27884 0.08819,-2.55764 0.132292,-3.83646 -0.220491,-0.72761 -0.440973,-1.45521 -0.661459,-2.18281 -0.176392,-0.19844 -0.352776,-0.39687 -0.529166,-0.59531 -0.242538,-0.15434 -0.485069,-0.30868 -0.727604,-0.46302 -0.507127,0.19844 -1.014236,0.39687 -1.521355,0.59531 -0.176392,0.28664 -0.352776,0.57326 -0.529166,0.8599 -0.110244,0.59532 -0.220485,1.19062 -0.330729,1.78593 0,2.62384 0,5.24757 0,7.87136 0.0441,0.97015 0.08819,1.94027 0.132291,2.91041 -0.06615,0.39689 -0.132291,0.79375 -0.198437,1.19063 -0.242538,0.28664 -0.485069,0.57326 -0.727604,0.85989 -0.19844,0.15435 -0.396875,0.30869 -0.595313,0.46302 -0.396883,0.2205 -0.79375,0.44098 -1.190625,0.66146 -0.0882,0 -0.17639,0 -0.264583,0 -0.110244,-0.19844 -0.220485,-0.39687 -0.330729,-0.59531 -0.0441,-0.19844 -0.08819,-0.39687 -0.132292,-0.59531 -0.0441,-0.28664 -0.08819,-0.57327 -0.132292,-0.8599 0.02204,-0.77171 0.0441,-1.5434 0.06615,-2.3151 0.02204,-0.66147 0.0441,-1.32292 0.06615,-1.98438 -0.0441,-0.77171 -0.08819,-1.5434 -0.132292,-2.3151 0,-0.77172 0,-1.5434 0,-2.3151 0,-1.01426 0,-2.02848 0,-3.04271 -0.06615,-0.44098 -0.132291,-0.88195 -0.198437,-1.32292 -0.264589,-0.35278 -0.529167,-0.70556 -0.79375,-1.05833 -0.418931,-0.19844 -0.837848,-0.39688 -1.256771,-0.59532 -0.352785,0.22049 -0.705556,0.44098 -1.058333,0.66146 -0.19844,0.39689 -0.396875,0.79375 -0.595313,1.19063 0,0.57327 0,1.14652 0,1.71979 -0.02204,1.91827 -0.0441,3.83646 -0.06615,5.75469 -0.02204,1.85212 -0.0441,3.70416 -0.06615,5.55625 0.02204,0.46303 0.0441,0.92604 0.06615,1.38906 -0.06615,0.15434 -0.132291,0.30868 -0.198437,0.46302 -0.154342,0.0882 -0.308682,0.17639 -0.463021,0.26458 -0.374832,-0.11024 -0.749652,-0.22048 -1.124479,-0.33073 -0.242538,-0.28663 -0.485069,-0.57326 -0.727604,-0.85989 -0.286637,-0.50713 -0.573265,-1.01424 -0.859896,-1.52136 -0.06615,-0.83786 -0.132292,-1.67569 -0.198438,-2.51354 -0.02204,-2.91047 -0.0441,-5.82083 -0.06614,-8.73125 0,-0.59532 0,-1.19062 0,-1.78593 -0.132295,-0.11025 -0.264584,-0.22049 -0.396875,-0.33073 -0.0441,-0.17639 -0.08819,-0.28664 -0.132292,-0.39688 -0.242538,-0.13229 -0.485069,-0.26458 -0.727604,-0.39687 -0.396883,-0.0441 -0.79375,-0.0882 -1.190625,-0.1323 -0.165367,0.14332 -0.330732,0.28664 -0.496094,0.42995 -0.165367,0.12127 -0.297656,0.27561 -0.429948,0.42995 -0.0882,0.17639 -0.17639,0.35278 -0.264583,0.52917 0.02204,1.30089 0.0441,2.60173 0.06615,3.9026 -0.0441,2.18286 -0.08819,4.36563 -0.132292,6.54844 0.02204,0.81581 0.0441,1.6316 0.06615,2.44739 0.0441,0.41894 0.08819,0.83785 0.132292,1.25677 0.22049,0.44099 0.440973,0.88195 0.661458,1.32292 0.308687,0.44098 0.61736,0.88195 0.926041,1.32292 0.440982,0.46303 0.881944,0.92604 1.322917,1.38906 0.374835,0.28664 0.749652,0.57327 1.124479,0.8599 0.485079,0.48508 0.97014,0.97014 1.455209,1.4552 0.463031,0.74967 0.926041,1.49931 1.389062,2.24896 0.242541,0.57328 0.485069,1.14653 0.727604,1.71979 0.02204,0.77172 0.0441,1.54341 0.06615,2.31511 0.06615,0.83786 0.132292,1.67569 0.198438,2.51354 0,0.66147 0,1.32292 0,1.98438 0.02204,0.24254 0.0441,0.48506 0.06615,0.7276 0.06615,0.15434 0.132292,0.30868 0.198438,0.46302 0.154345,0.33074 0.308681,0.66146 0.463021,0.99219 0.264588,0.39688 0.79375,1.19062 0.79375,1.19062 z"
       transform="translate(-15.610417,11.37708)" /><path
       style="opacity:1;fill:#001f41;fill-opacity:1;stroke:none;stroke-width:0.531;stroke-dasharray:none;stroke-opacity:1;paint-order:markers fill stroke"
       d="m 73.749369,167.14799 c 0.11693,-0.18319 0.350791,-0.54957 0.658713,-1.04458 0.307922,-0.49502 0.689884,-1.11863 1.134224,-1.67211 0.444339,-0.55347 0.951031,-1.03678 1.473325,-1.48502 0.522294,-0.44823 1.060165,-0.86138 1.574662,-1.19658 0.514497,-0.3352 1.005595,-0.59244 1.559071,-0.81461 0.553477,-0.22217 1.169301,-0.40926 1.753959,-0.56127 0.584658,-0.15201 1.138116,-0.26894 1.664308,-0.3274 0.526191,-0.0585 1.025084,-0.0585 1.317416,-0.0351 0.292332,0.0234 0.378049,0.0702 0.452123,0.12083 0.07407,0.0507 0.13642,0.10523 0.218274,0.22217 0.08185,0.11693 0.183191,0.29622 0.237759,0.6704 0.05457,0.37418 0.06236,0.94323 0.08185,1.69159 0.01949,0.74837 0.05067,1.676 0.01169,2.362 -0.03898,0.68599 -0.148112,1.13032 -0.296226,1.73057 -0.148113,0.60025 -0.335198,1.35639 -0.569061,2.06188 -0.233863,0.70548 -0.514491,1.36028 -0.951037,2.11254 -0.436546,0.75226 -1.028983,1.60194 -1.613639,2.29183 -0.584656,0.68989 -1.161504,1.21997 -1.828017,1.72667 -0.666512,0.50671 -1.422645,0.99001 -2.186597,1.38368 -0.763953,0.39367 -1.535678,0.69768 -2.046275,0.92375 -0.510598,0.22606 -0.760046,0.37417 -0.943239,0.54177 -0.183194,0.16761 -0.30012,0.35469 -0.358586,0.57297 -0.05846,0.21827 -0.05846,0.46771 -0.04677,1.63704 0.01169,1.16932 0.03508,3.25844 0.05067,4.63043 0.01559,1.37199 0.02339,2.02679 -0.04677,2.45554 -0.07016,0.42874 -0.218272,0.63142 -0.409259,0.79902 -0.190988,0.1676 -0.424845,0.30012 -0.689891,0.38587 -0.265046,0.0858 -0.561266,0.12472 -0.814618,0.14031 -0.253352,0.0156 -0.463816,0.008 -0.6626,-0.0546 -0.198783,-0.0624 -0.385868,-0.17929 -0.553472,-0.3391 -0.167603,-0.15981 -0.315708,-0.36248 -0.393662,-1.95666 -0.07795,-1.59418 -0.08575,-4.57975 -0.09355,-6.1778 -0.0078,-1.59805 -0.01559,-1.80852 -0.08575,-1.98002 -0.07016,-0.1715 -0.20268,-0.30402 -0.343,-0.38977 -0.14032,-0.0858 -0.288434,-0.12473 -0.682101,-0.28453 -0.393667,-0.15981 -1.032875,-0.44044 -1.598043,-0.70158 -0.565167,-0.26115 -1.056264,-0.5028 -1.512297,-0.76005 -0.456032,-0.25725 -0.876973,-0.53008 -1.251154,-0.77954 -0.374181,-0.24945 -0.70158,-0.47551 -0.99001,-0.70548 -0.28843,-0.22996 -0.537879,-0.46382 -0.799025,-0.74056 -0.261145,-0.27673 -0.53398,-0.59634 -0.822412,-0.94713 -0.288432,-0.3508 -0.592445,-0.73276 -0.884773,-1.10694 -0.292329,-0.37418 -0.572959,-0.74056 -0.802923,-1.11864 -0.229965,-0.37808 -0.409253,-0.76784 -0.576855,-1.1888 -0.167602,-0.42095 -0.323506,-0.87307 -0.459927,-1.34469 -0.13642,-0.47163 -0.253346,-0.96272 -0.335198,-1.34859 -0.08185,-0.38588 -0.128624,-0.66651 -0.152009,-0.93545 -0.02339,-0.26894 -0.02339,-0.52619 -0.03118,-1.05238 -0.0078,-0.52619 -0.02338,-1.3213 -0.03508,-1.90596 -0.01169,-0.58466 -0.01949,-0.95883 -0.0078,-1.26674 0.01169,-0.30792 0.04288,-0.54958 0.09745,-0.77954 0.05457,-0.22997 0.132519,-0.44823 0.198781,-0.62363 0.06626,-0.1754 0.120828,-0.30792 0.194874,-0.42094 0.07405,-0.11302 0.167605,-0.20658 0.315726,-0.28064 0.14812,-0.0741 0.350784,-0.12862 0.467714,-0.15591 0.11693,-0.0273 0.14811,-0.0273 0.475526,-0.004 0.327417,0.0234 0.951027,0.0702 1.477223,0.12472 0.526196,0.0546 0.954926,0.11693 1.488915,0.25335 0.533989,0.13642 1.173195,0.34689 1.718876,0.54568 0.545681,0.19878 0.9978,0.38586 1.516199,0.69379 0.5184,0.30792 1.103036,0.73665 1.629228,1.1771 0.526193,0.44044 0.993904,0.89256 1.407063,1.3408 0.413159,0.44824 0.771735,0.89256 1.071859,1.38368 0.300124,0.49111 0.541776,1.02898 0.783434,1.48501 0.241658,0.45603 0.483311,0.8302 0.724967,1.20438 0,0 -4e-6,1e-5 0.116927,-0.18318 z"
       id="path58"
       inkscape:path-effect="#path-effect58"
       inkscape:original-d="m 73.632438,167.33118 c 0.233862,-0.36638 0.467722,-0.73276 0.701582,-1.09914 0.381982,-0.62365 0.763947,-1.24726 1.145918,-1.87089 0.506709,-0.48332 1.013397,-0.96663 1.520095,-1.44994 0.537893,-0.41316 1.075762,-0.82631 1.613641,-1.23946 0.491117,-0.25725 0.982215,-0.51449 1.473324,-0.77174 0.615844,-0.18709 1.231667,-0.37418 1.847501,-0.56127 0.553482,-0.11693 1.10694,-0.23386 1.660411,-0.35079 0.498912,0 0.997805,0 1.496708,0 0.08575,0.0468 0.171498,0.0935 0.257247,0.14032 0.06236,0.0546 0.124727,0.10913 0.187089,0.1637 0.101344,0.1793 0.202679,0.35859 0.30402,0.53788 0.0078,0.56907 0.01558,1.13812 0.02339,1.70718 0.03118,0.92767 0.06236,1.8553 0.09354,2.78295 -0.109138,0.44434 -0.21827,0.88867 -0.327406,1.333 -0.187092,0.75617 -0.374176,1.51231 -0.561265,2.26846 -0.280639,0.65482 -0.561266,1.30962 -0.841899,1.96443 -0.592458,0.84971 -1.184894,1.69939 -1.777342,2.54908 -0.576868,0.53009 -1.153712,1.06017 -1.73057,1.59025 -0.756166,0.48333 -1.5123,0.96663 -2.26845,1.44994 -0.771756,0.30403 -1.543482,0.60804 -2.315221,0.91206 -0.249457,0.14811 -0.498904,0.29622 -0.748355,0.44433 -0.116933,0.1871 -0.233863,0.37418 -0.350793,0.56127 0,0.24946 0,0.4989 0,0.74835 0.02339,2.0892 0.04677,4.17832 0.07016,6.26748 0.0078,0.65482 0.01558,1.30962 0.02339,1.96443 -0.148117,0.20268 -0.296225,0.40536 -0.444336,0.60803 -0.233865,0.13253 -0.467723,0.26505 -0.701583,0.39757 -0.29623,0.039 -0.592447,0.078 -0.888671,0.11693 -0.210479,-0.008 -0.42095,-0.0156 -0.631426,-0.0234 -0.187092,-0.11693 -0.374176,-0.23386 -0.561266,-0.35079 -0.148114,-0.20269 -0.296222,-0.40536 -0.444333,-0.60804 -0.0078,-2.98568 -0.01558,-5.97125 -0.02339,-8.95687 -0.0078,-0.21048 -0.01558,-0.42095 -0.02339,-0.63142 -0.132525,-0.13253 -0.265044,-0.26505 -0.397563,-0.39757 -0.148117,-0.039 -0.296225,-0.078 -0.444336,-0.11693 -0.639234,-0.28064 -1.278441,-0.56127 -1.917661,-0.8419 -0.491117,-0.24166 -0.982215,-0.48331 -1.473321,-0.72497 -0.420958,-0.27284 -0.841899,-0.54567 -1.262849,-0.81851 -0.327411,-0.22607 -0.654812,-0.45213 -0.982215,-0.6782 -0.249457,-0.23386 -0.498904,-0.46772 -0.748355,-0.70158 -0.272844,-0.31961 -0.545674,-0.63922 -0.818513,-0.95883 -0.304024,-0.38198 -0.608039,-0.76394 -0.912058,-1.14591 -0.280638,-0.36639 -0.561266,-0.73277 -0.841899,-1.09915 -0.179298,-0.38978 -0.358587,-0.77954 -0.537879,-1.16931 -0.155911,-0.45214 -0.311815,-0.90426 -0.467723,-1.35639 -0.116932,-0.49112 -0.23386,-0.98221 -0.35079,-1.47332 -0.04677,-0.28064 -0.09355,-0.56127 -0.140316,-0.8419 0,-0.25725 0,-0.5145 0,-0.77174 -0.01558,-0.79514 -0.03118,-1.59025 -0.04677,-2.38538 -0.0078,-0.37419 -0.01558,-0.74836 -0.02339,-1.12253 0.03118,-0.24166 0.06236,-0.48332 0.09355,-0.72497 0.07795,-0.21828 0.155905,-0.43654 0.23386,-0.65481 0.05457,-0.13253 0.109135,-0.26505 0.163703,-0.39757 0.09355,-0.0935 0.187086,-0.18708 0.280633,-0.28063 0.202684,-0.0546 0.405357,-0.10913 0.608036,-0.1637 0.03118,0 0.06236,0 0.09355,0 0.623641,0.0468 1.247256,0.0935 1.870887,0.14032 0.428752,0.0624 0.857488,0.12472 1.286235,0.18708 0.639231,0.21048 1.278438,0.42095 1.917658,0.63143 0.452141,0.18709 0.904261,0.37417 1.356391,0.56126 0.584666,0.42876 1.169305,0.85749 1.753958,1.28624 0.46773,0.45214 0.935442,0.90426 1.403164,1.35639 0.358595,0.44435 0.717175,0.88867 1.075759,1.33301 0.241663,0.53789 0.483315,1.07576 0.724969,1.61364 0.241663,0.37418 0.724969,1.12253 0.724969,1.12253 z"
       transform="translate(-15.345837,8.46667)" /><path
       style="opacity:1;fill:#0183d2;fill-opacity:1;stroke:none;stroke-width:0.531;stroke-dasharray:none;stroke-opacity:1;paint-order:markers fill stroke"
       d="m 64.363754,163.90902 c 0.194881,-0.008 0.522288,0.1637 0.943242,0.42095 0.420955,0.25725 0.935438,0.60024 1.379779,0.90427 0.444341,0.30402 0.818507,0.56906 1.200484,0.91205 0.381977,0.343 0.771738,0.76394 1.153715,1.21608 0.381976,0.45213 0.756149,0.93544 1.060169,1.43434 0.30402,0.49891 0.537878,1.0134 0.75615,1.59806 0.218273,0.58466 0.420945,1.23945 0.51449,1.63701 0.09354,0.39757 0.07795,0.53789 0.01559,0.60804 -0.06236,0.0702 -0.171497,0.0702 -0.374182,0.0468 -0.202684,-0.0234 -0.498891,-0.0701 -0.857485,-0.20267 -0.358595,-0.13253 -0.779537,-0.3508 -1.208285,-0.57687 -0.428747,-0.22606 -0.86528,-0.45992 -1.278436,-0.76394 -0.413157,-0.30402 -0.802918,-0.67819 -1.184895,-1.08356 -0.381978,-0.40536 -0.756148,-0.84189 -1.052374,-1.26284 -0.296227,-0.42096 -0.514492,-0.82631 -0.693787,-1.27844 -0.179295,-0.45214 -0.319609,-0.95103 -0.428745,-1.49671 -0.109136,-0.54569 -0.187087,-1.13812 -0.194881,-1.52789 -0.0078,-0.38977 0.05457,-0.57686 0.249451,-0.58465 z"
       id="path59"
       inkscape:path-effect="#path-effect59"
       inkscape:original-d="m 64.231234,163.72973 c 0.327403,0.17149 0.654809,0.34299 0.982215,0.51449 0.514503,0.343 1.028986,0.68599 1.543481,1.02899 0.374185,0.26505 0.748356,0.53008 1.122532,0.79513 0.389776,0.42095 0.779537,0.84189 1.169305,1.26284 0.374184,0.48332 0.748353,0.96663 1.122532,1.44994 0.233865,0.5145 0.46772,1.02899 0.701582,1.54348 0.202682,0.65483 0.405358,1.30962 0.608036,1.96443 -0.01558,0.14032 -0.03118,0.28064 -0.04677,0.42095 -0.109138,0 -0.218271,0 -0.327406,0 -0.29623,-0.0468 -0.592447,-0.0935 -0.888672,-0.14031 -0.420957,-0.21828 -0.841899,-0.43655 -1.262848,-0.65482 -0.436549,-0.23386 -0.87308,-0.46772 -1.309619,-0.70158 -0.389776,-0.37418 -0.779536,-0.74835 -1.169305,-1.12253 -0.374184,-0.43655 -0.748355,-0.87308 -1.122532,-1.30962 -0.218275,-0.40537 -0.436541,-0.81072 -0.654812,-1.21608 -0.140319,-0.49891 -0.280632,-0.9978 -0.420949,-1.4967 -0.07795,-0.59247 -0.155906,-1.1849 -0.23386,-1.77735 0.06236,-0.18709 0.124725,-0.37418 0.18709,-0.56126 z"
       transform="translate(-15.345837,8.46666)" /><path
       style="opacity:1;fill:#0083d2;fill-opacity:1;stroke:none;stroke-width:0.531;stroke-dasharray:none;stroke-opacity:1;paint-order:markers fill stroke"
       d="m 75.659279,172.6059 c -0.01654,-0.12127 -0.04961,-0.3638 0.0441,-0.74966 0.09371,-0.38586 0.314188,-0.91501 0.51814,-1.38906 0.203952,-0.47405 0.391363,-0.89297 0.639412,-1.3119 0.248049,-0.41892 0.556725,-0.83784 0.931557,-1.2733 0.374831,-0.43547 0.815795,-0.88746 1.223696,-1.29536 0.407902,-0.4079 0.782717,-0.77169 1.168573,-1.03077 0.385856,-0.25907 0.782724,-0.41341 1.003207,-0.4961 0.220484,-0.0827 0.264567,-0.0937 0.2756,0.0661 0.01103,0.15985 -0.01102,0.49057 -0.0496,0.98115 -0.03859,0.49059 -0.09371,1.14102 -0.270098,1.75287 -0.17639,0.61185 -0.474044,1.18511 -0.832337,1.71979 -0.358292,0.53468 -0.777211,1.03077 -1.32292,1.53789 -0.545708,0.50712 -1.218179,1.02526 -1.697738,1.35599 -0.47956,0.33073 -0.766186,0.47404 -1.003211,0.48507 -0.237024,0.011 -0.424435,-0.11025 -0.518141,-0.17089 -0.09371,-0.0606 -0.0937,-0.0606 -0.110237,-0.18186 z"
       id="path60"
       inkscape:path-effect="#path-effect60"
       inkscape:original-d="m 75.675815,172.72716 c -0.03307,-0.24253 -0.06615,-0.48506 -0.09922,-0.7276 0.22049,-0.52918 0.440973,-1.05833 0.661458,-1.5875 0.187418,-0.41893 0.374828,-0.83785 0.56224,-1.25677 0.308687,-0.41893 0.61736,-0.83785 0.926042,-1.25677 0.440981,-0.45201 0.881943,-0.904 1.322916,-1.35599 0.374835,-0.36381 0.749652,-0.7276 1.124479,-1.09141 0.396883,-0.15434 0.79375,-0.30868 1.190625,-0.46302 0.0441,-0.011 0.08819,-0.022 0.132292,-0.0331 -0.02204,0.33074 -0.0441,0.66146 -0.06615,0.99219 -0.05512,0.65044 -0.110244,1.30087 -0.165364,1.9513 -0.297662,0.57327 -0.595313,1.14653 -0.892969,1.71979 -0.418931,0.4961 -0.837848,0.99219 -1.256771,1.48828 -0.672497,0.51815 -1.344964,1.03629 -2.017448,1.55443 -0.286636,0.14332 -0.573265,0.28663 -0.859896,0.42995 -0.187417,-0.12127 -0.374827,-0.24254 -0.562239,-0.36381 z"
       transform="translate(-15.131327,8.49593)" /><path
       style="opacity:1;fill:#00203e;fill-opacity:1;stroke:none;stroke-width:0.531;stroke-dasharray:none;stroke-opacity:1;paint-order:markers fill stroke"
       d="m 95.067567,131.31987 c 1.796962,0 5.390883,0 7.309113,0.022 1.91824,0.0221 2.16077,0.0662 2.33716,0.1323 0.17639,0.0661 0.28663,0.15434 0.44097,0.2756 0.15434,0.12127 0.35278,0.27561 0.49609,0.41893 0.14332,0.14331 0.23151,0.2756 0.29766,0.42994 0.0661,0.15435 0.11024,0.33073 0.52917,3.21916 0.41894,2.88842 1.21267,8.48865 1.64262,11.75185 0.42995,3.26321 0.49609,4.18924 0.51813,4.99402 0.022,0.80478 -2e-5,1.48827 -0.0551,2.24895 -0.0551,0.76069 -0.14333,1.59852 -0.39689,2.46945 -0.25356,0.87093 -0.67248,1.77491 -1.08038,2.51354 -0.4079,0.73863 -0.80477,1.31189 -1.20165,1.81901 -0.39688,0.50712 -0.79374,0.94808 -1.20165,1.28984 -0.40791,0.34176 -0.82682,0.58429 -1.05834,0.7276 -0.23151,0.14332 -0.27561,0.18742 -0.46302,0.26459 -0.18741,0.0772 -0.51814,0.18741 -0.78272,0.26458 -0.26458,0.0772 -0.46302,0.12126 -0.63941,0.19843 -0.17639,0.0772 -0.33073,0.18742 -0.46302,0.30869 -0.1323,0.12127 -0.24254,0.25356 -0.31971,0.38585 -0.0772,0.13229 -0.12126,0.26458 -0.15433,0.41892 -0.0331,0.15435 -0.0551,0.33073 -0.0661,0.91503 -0.011,0.5843 -0.011,1.57646 -0.011,2.52456 0,0.9481 0,1.85208 0.003,2.74265 0.003,0.89057 0.008,1.76769 0.0101,2.73635 0.003,0.96866 0.003,2.02881 0.0727,2.94478 0.0702,0.91596 0.21047,1.68768 0.31961,2.16321 0.10914,0.47553 0.18708,0.6548 0.30791,0.87307 0.12083,0.21828 0.28453,0.47552 0.49111,0.73666 0.20658,0.26115 0.45603,0.52619 0.73277,0.73666 0.27673,0.21048 0.58075,0.36638 0.91019,0.54347 0.32943,0.17709 0.68426,0.37535 1.02705,0.5489 0.34279,0.17355 0.67351,0.32238 0.97668,0.47672 0.30318,0.15434 0.57878,0.31419 0.82959,0.49334 0.2508,0.17915 0.47679,0.37758 0.60908,0.58429 0.1323,0.20671 0.17088,0.42167 0.17639,0.63665 0.006,0.21498 -0.022,0.42995 -0.0992,0.6146 -0.0772,0.18466 -0.20394,0.339 -0.33899,0.47129 -0.13505,0.1323 -0.27837,0.24254 -0.41065,0.30041 -0.13228,0.0579 -0.25357,0.0634 -2.68998,0.0744 -2.43642,0.011 -7.187807,0.0275 -9.596614,0.0248 -2.408808,-0.003 -2.474969,-0.0248 -2.579703,-0.0744 -0.104734,-0.0496 -0.248033,-0.12677 -0.355522,-0.22323 -0.107488,-0.0965 -0.179143,-0.21222 -0.239778,-0.33074 -0.06063,-0.11851 -0.110242,-0.23977 -0.143315,-0.3886 -0.03307,-0.14883 -0.04961,-0.32521 -0.05237,-0.5209 -0.0028,-0.19568 0.0083,-0.41065 0.04684,-0.54845 0.03858,-0.1378 0.104735,-0.19844 0.214981,-0.2894 0.110247,-0.091 0.264582,-0.21221 0.463027,-0.31143 0.198445,-0.0992 0.440965,-0.17639 0.639408,-0.25632 0.198443,-0.0799 0.352771,-0.16261 0.545699,-0.2508 0.192927,-0.0882 0.424434,-0.1819 0.697288,-0.33073 0.272854,-0.14883 0.587043,-0.35278 0.873678,-0.55673 0.286634,-0.20395 0.545703,-0.4079 0.760676,-0.60909 0.214974,-0.20119 0.385849,-0.39963 0.542948,-0.59531 0.157098,-0.19569 0.300411,-0.38861 0.48507,-0.68902 0.184659,-0.30042 0.410652,-0.70831 0.576017,-1.08589 0.165365,-0.37759 0.270094,-0.72485 0.350021,-1.06385 0.07993,-0.339 0.135048,-0.66973 0.176389,-2.83605 0.04134,-2.16631 0.0689,-6.16805 0.07166,-8.22408 0.0028,-2.05604 -0.0193,-2.16628 -0.07993,-2.2903 -0.06064,-0.12403 -0.159853,-0.26183 -0.239782,-0.37208 -0.07993,-0.11024 -0.140557,-0.19292 -0.256314,-0.27836 -0.115758,-0.0854 -0.286631,-0.17363 -0.482312,-0.24253 -0.195682,-0.0689 -0.416163,-0.11851 -0.75241,-0.25356 -0.336247,-0.13505 -0.788238,-0.35554 -1.163065,-0.55673 -0.374826,-0.20119 -0.672479,-0.38309 -0.903992,-0.53743 -0.231514,-0.15434 -0.396872,-0.28112 -0.600825,-0.46027 -0.203953,-0.17915 -0.446481,-0.41065 -0.658701,-0.64492 -0.21222,-0.23427 -0.394119,-0.47129 -0.589801,-0.76068 -0.195683,-0.28939 -0.405142,-0.63114 -0.68902,-1.19338 -0.283878,-0.56225 -0.642161,-1.34496 -0.879184,-1.90169 -0.237024,-0.55673 -0.352779,-0.88746 -0.418925,-1.16307 -0.06615,-0.27561 -0.08268,-0.49609 -0.06339,-1.45246 0.01929,-0.95638 0.07441,-2.64858 0.110242,-3.66006 0.03583,-1.01148 0.05236,-1.34221 0.09646,-2.06431 0.0441,-0.7221 0.115755,-1.83554 0.212219,-2.95176 0.09646,-1.11622 0.217728,-2.23516 0.35829,-3.67385 0.140561,-1.43869 0.300411,-3.19704 0.471289,-4.81211 0.170878,-1.61507 0.352776,-3.08679 0.482311,-3.977 0.129536,-0.89022 0.206707,-1.1989 0.275608,-1.41663 0.0689,-0.21773 0.129536,-0.34451 0.192925,-0.45475 0.06339,-0.11024 0.129535,-0.20395 0.206715,-0.2894 0.07718,-0.0855 0.165351,-0.1626 0.256295,-0.23425 0.09094,-0.0717 0.18467,-0.13781 0.286644,-0.19568 0.101974,-0.0579 0.212209,-0.10749 0.300404,-0.14331 0.0882,-0.0358 0.154358,-0.0579 0.217738,-0.0744 0.06338,-0.0165 0.12401,-0.0276 0.195695,-0.0358 0.07169,-0.008 0.154327,-0.0138 0.195668,-0.0165 0.04134,-0.003 0.04138,-0.003 1.838339,-0.003 z"
       id="path62"
       inkscape:path-effect="#path-effect62"
       inkscape:original-d="m 93.270606,131.31987 c 3.593923,0 7.187844,0 10.781774,0 0.24254,0.0441 0.48507,0.0882 0.7276,0.1323 0.11025,0.0882 0.22049,0.17638 0.33073,0.26458 0.19844,0.15434 0.39688,0.30868 0.59531,0.46302 0.0882,0.13229 0.17639,0.26458 0.26459,0.39687 0.0441,0.1764 0.0882,0.35278 0.13229,0.52917 0.79376,5.60046 1.5875,11.20069 2.38125,16.80104 0.0661,0.92606 0.13229,1.85209 0.19844,2.77813 -0.022,0.68352 -0.0441,1.36701 -0.0662,2.05052 -0.0882,0.83786 -0.17639,1.67569 -0.26458,2.51354 -0.41893,0.90401 -0.83785,1.80799 -1.25677,2.71198 -0.39689,0.57327 -0.79375,1.14653 -1.19063,1.71979 -0.39688,0.44098 -0.79375,0.88194 -1.19062,1.32292 -0.41894,0.24254 -0.83785,0.48507 -1.25678,0.7276 -0.0441,0.0441 -0.0882,0.0882 -0.13229,0.13229 -0.33073,0.11025 -0.66146,0.22049 -0.99218,0.33073 -0.19844,0.0441 -0.39688,0.0882 -0.59532,0.13229 -0.15434,0.11025 -0.30868,0.22049 -0.46302,0.33073 -0.11024,0.1323 -0.22048,0.26459 -0.33073,0.39688 -0.0441,0.13229 -0.0882,0.26458 -0.13229,0.39687 -0.022,0.1764 -0.0441,0.35278 -0.0661,0.52917 0,0.99221 0,1.98437 0,2.97656 0,0.90401 0,1.80799 0,2.71198 0.005,0.87715 0.0101,1.75427 0.0152,2.6314 0,1.06019 0,2.12034 0,3.18051 0.14032,0.77176 0.28063,1.54348 0.42095,2.31523 0.078,0.17929 0.1559,0.35858 0.23386,0.53788 0.1637,0.25725 0.3274,0.51449 0.4911,0.77173 0.24946,0.26505 0.49891,0.53009 0.74836,0.79513 0.30402,0.15591 0.60804,0.31182 0.91206,0.46772 0.35485,0.19827 0.70968,0.39654 1.06453,0.5948 0.33073,0.14883 0.66145,0.29766 0.99218,0.44649 0.27562,0.15985 0.55122,0.3197 0.82683,0.47955 0.226,0.19845 0.45199,0.39688 0.67799,0.59532 0.0386,0.21498 0.0772,0.42994 0.11576,0.64492 -0.0276,0.21498 -0.0551,0.42995 -0.0827,0.64492 -0.12678,0.15434 -0.25355,0.30868 -0.38033,0.46302 -0.14332,0.11025 -0.28664,0.22049 -0.42995,0.33073 -0.12127,0.005 -0.24254,0.011 -0.3638,0.0165 -4.75157,0.0165 -9.502957,0.0331 -14.254432,0.0496 -0.06615,-0.022 -0.132291,-0.0441 -0.198437,-0.0661 -0.14332,-0.0772 -0.286631,-0.15434 -0.429948,-0.23151 -0.07166,-0.11576 -0.143317,-0.23151 -0.214974,-0.34727 -0.04961,-0.12127 -0.09922,-0.24253 -0.148828,-0.3638 -0.01654,-0.17639 -0.03307,-0.35277 -0.04961,-0.52916 0.01103,-0.21498 0.02204,-0.42995 0.03307,-0.64493 0.06615,-0.0606 0.132292,-0.12126 0.198438,-0.1819 0.154344,-0.12127 0.308681,-0.24253 0.463021,-0.3638 0.24254,-0.0772 0.485068,-0.15434 0.727604,-0.23151 0.154344,-0.0827 0.308681,-0.16536 0.463021,-0.24805 0.231515,-0.0937 0.46302,-0.18741 0.694531,-0.28112 0.314198,-0.20395 0.628385,-0.4079 0.942578,-0.61185 0.259077,-0.20395 0.518141,-0.4079 0.777213,-0.61184 0.170882,-0.19844 0.341755,-0.39688 0.512631,-0.59532 0.143319,-0.19293 0.286631,-0.38585 0.429948,-0.57877 0.226001,-0.40791 0.451995,-0.8158 0.677994,-1.2237 0.104733,-0.34727 0.209463,-0.69453 0.314193,-1.0418 0.05512,-0.33073 0.110244,-0.66146 0.165365,-0.99219 0.02756,-4.0019 0.05512,-8.00364 0.08268,-12.00546 -0.02204,-0.11025 -0.0441,-0.22049 -0.06615,-0.33073 -0.09922,-0.13781 -0.198437,-0.27561 -0.297656,-0.41341 -0.06063,-0.0827 -0.121267,-0.16537 -0.181901,-0.24805 -0.170881,-0.0882 -0.341755,-0.17639 -0.51263,-0.26458 -0.220491,-0.0496 -0.440974,-0.0992 -0.661459,-0.14883 -0.452006,-0.22049 -0.903994,-0.44098 -1.355989,-0.66146 -0.297662,-0.1819 -0.595313,-0.3638 -0.892969,-0.5457 -0.165367,-0.12679 -0.330729,-0.25356 -0.496094,-0.38034 -0.242538,-0.23152 -0.485068,-0.46302 -0.727604,-0.69453 -0.181904,-0.23703 -0.363802,-0.47405 -0.545703,-0.71107 -0.209465,-0.34176 -0.418923,-0.68351 -0.628385,-1.02526 -0.358297,-0.78274 -0.716579,-1.56545 -1.07487,-2.34818 -0.115758,-0.33073 -0.231511,-0.66146 -0.347266,-0.99219 -0.01654,-0.22049 -0.03307,-0.44097 -0.04961,-0.66146 0.05512,-1.69226 0.110244,-3.38446 0.165364,-5.07669 0.01654,-0.33073 0.03307,-0.66146 0.04961,-0.99219 0.07166,-1.11347 0.143317,-2.22691 0.214974,-3.34036 0.121269,-1.11899 0.242535,-2.23793 0.363802,-3.3569 0.159856,-1.75841 0.319704,-3.51676 0.479557,-5.27513 0.181904,-1.47177 0.363802,-2.94349 0.545703,-4.41524 0.07717,-0.30868 0.15434,-0.61736 0.231511,-0.92604 0.06063,-0.12678 0.121266,-0.25356 0.181901,-0.38034 0.06615,-0.0937 0.132291,-0.18741 0.198437,-0.28112 0.0882,-0.0772 0.17639,-0.15433 0.264583,-0.23151 0.09371,-0.0661 0.187413,-0.13229 0.28112,-0.19843 0.110247,-0.0496 0.220485,-0.0992 0.330729,-0.14883 0.06615,-0.022 0.132292,-0.0441 0.198438,-0.0661 0.06063,-0.011 0.121266,-0.022 0.181901,-0.0331 0.08269,-0.006 0.165365,-0.011 0.248047,-0.0165 z"
       transform="translate(-14.044237,10.791507)" /><path
       style="opacity:1;fill:#f6f2e1;fill-opacity:1;stroke:none;stroke-width:0.531;stroke-dasharray:none;stroke-opacity:1;paint-order:markers fill stroke"
       d="m 95.023471,135.42092 c 0,0 7.391799,0.0496 7.391799,0.0496 0,0 1.10794,8.94623 1.10794,8.94623 0,0 -9.525,0 -9.525,0 z"
       id="path63"
       inkscape:path-effect="#path-effect64"
       inkscape:original-d="m 95.023471,135.42092 c 0,0 7.391799,0.0496 7.391799,0.0496 0,0 1.10794,8.94623 1.10794,8.94623 0,0 -9.525,0 -9.525,0 z"
       transform="translate(-14.168507,10.671175)" /><path
       style="opacity:1;fill:#f36806;fill-opacity:1;stroke:none;stroke-width:0.531;stroke-dasharray:none;stroke-opacity:1;paint-order:markers fill stroke"
       d="m 95.469955,148.03548 c 1.670183,-0.003 5.010545,-0.008 8.350915,-0.0138 0.0661,0.18741 0.13228,0.37482 0.19292,0.67524 0.0606,0.30042 0.11576,0.71382 0.16537,1.15204 0.0496,0.43822 0.0937,0.90123 0.11575,1.76665 0.022,0.86542 0.022,2.13319 -0.0138,2.96278 -0.0358,0.82959 -0.10748,1.22093 -0.23702,1.62057 -0.12954,0.39963 -0.31695,0.80752 -0.55673,1.2485 -0.23978,0.44098 -0.53192,0.91501 -0.80753,1.28708 -0.27561,0.37208 -0.53468,0.64217 -0.82958,0.88471 -0.2949,0.24254 -0.62563,0.4575 -1.01148,0.65043 -0.38586,0.19293 -0.82682,0.3638 -1.245748,0.44924 -0.418928,0.0854 -0.815795,0.0854 -1.196138,0.0661 -0.380343,-0.0193 -0.744139,-0.0579 -1.03904,-0.12127 -0.294902,-0.0634 -0.520895,-0.15159 -0.87092,-0.3831 -0.350025,-0.23151 -0.824062,-0.60633 -1.259527,-1.08314 -0.435466,-0.47681 -0.83233,-1.05557 -1.113453,-1.57648 -0.281122,-0.5209 -0.446483,-0.98391 -0.559482,-1.44418 -0.113,-0.46027 -0.173632,-0.91777 -0.201192,-1.41386 -0.02756,-0.4961 -0.02205,-1.03077 -0.0028,-1.78594 0.01929,-0.75518 0.05237,-1.73081 0.101976,-2.4474 0.04961,-0.71658 0.115755,-1.17408 0.176389,-1.54615 0.06064,-0.37208 0.115756,-0.65871 0.143316,-0.80203 0.02756,-0.14331 0.02756,-0.14334 1.697738,-0.14609 z"
       id="path64"
       inkscape:path-effect="#path-effect65"
       inkscape:original-d="m 93.799773,148.03823 c 3.340364,-0.006 10.021097,-0.0165 10.021097,-0.0165 0,0 0.13229,0.37482 0.19843,0.56224 0.0551,0.41342 0.11025,0.82682 0.16537,1.24023 0.0441,0.46303 0.0882,0.92604 0.13229,1.38906 0,1.26782 0,2.53559 0,3.80339 -0.0717,0.39137 -0.14332,0.78272 -0.21497,1.17409 -0.18742,0.4079 -0.37483,0.81579 -0.56224,1.22369 -0.29215,0.47406 -0.58429,0.94809 -0.87644,1.42214 -0.25907,0.2701 -0.51814,0.54019 -0.77721,0.81029 -0.33073,0.21498 -0.66146,0.42994 -0.99219,0.64492 -0.44098,0.17088 -0.88194,0.34175 -1.322913,0.51263 -0.396883,0 -0.79375,0 -1.190625,0 -0.36381,-0.0386 -0.727604,-0.0772 -1.091407,-0.11576 -0.226001,-0.0882 -0.451995,-0.17639 -0.677994,-0.26458 -0.474054,-0.37483 -0.94809,-0.74965 -1.422136,-1.12448 -0.396883,-0.57879 -0.79375,-1.15755 -1.190625,-1.73633 -0.165367,-0.46303 -0.330729,-0.92604 -0.496093,-1.38906 -0.06064,-0.45752 -0.121267,-0.91502 -0.181901,-1.37253 0.0055,-0.53468 0.01103,-1.06935 0.01654,-1.60403 0.03307,-0.97567 0.06615,-1.9513 0.09922,-2.92696 0.06615,-0.45751 0.132291,-0.91501 0.198437,-1.37252 0.05512,-0.28664 0.110244,-0.57327 0.165365,-0.8599 z"
       transform="translate(-14.231327,10.978595)" /></g></svg>
